<?xml version="1.0" encoding="UTF-8" standalone="no"?>
<svg
   xmlns:dc="http://purl.org/dc/elements/1.1/"
   xmlns:cc="http://creativecommons.org/ns#"
   xmlns:rdf="http://www.w3.org/1999/02/22-rdf-syntax-ns#"
   xmlns:svg="http://www.w3.org/2000/svg"
   xmlns="http://www.w3.org/2000/svg"
   xmlns:sodipodi="http://sodipodi.sourceforge.net/DTD/sodipodi-0.dtd"
   xmlns:inkscape="http://www.inkscape.org/namespaces/inkscape"
   width="220.77396mm"
   height="113.72134mm"
   viewBox="0 0 220.77396 113.72133"
   version="1.1"
   id="svg8"
   inkscape:version="1.0 (4035a4fb49, 2020-05-01)"
   sodipodi:docname="demosvg.svg">
  <defs
     id="defs2">
    <pattern
       id="EMFhbasepattern"
       patternUnits="userSpaceOnUse"
       width="6"
       height="6"
       x="0"
       y="0" />
  </defs>
  <sodipodi:namedview
     id="base"
     pagecolor="#ffffff"
     bordercolor="#666666"
     borderopacity="1.0"
     inkscape:pageopacity="0.0"
     inkscape:pageshadow="2"
     inkscape:zoom="0.69999999"
     inkscape:cx="329.00764"
     inkscape:cy="488.63597"
     inkscape:document-units="mm"
     inkscape:current-layer="layer1"
     inkscape:document-rotation="0"
     showgrid="false"
     inkscape:window-width="1500"
     inkscape:window-height="938"
     inkscape:window-x="-6"
     inkscape:window-y="-6"
     inkscape:window-maximized="1" />
  <metadata
     id="metadata5">
    <rdf:RDF>
      <cc:Work
         rdf:about="">
        <dc:format>image/svg+xml</dc:format>
        <dc:type
           rdf:resource="http://purl.org/dc/dcmitype/StillImage" />
        <dc:title />
      </cc:Work>
    </rdf:RDF>
  </metadata>
  <g
     inkscape:label="Laag 1"
     inkscape:groupmode="layer"
     id="layer1"
     transform="translate(219.69949,83.878887)">
    <rect
       ry="2.8760636"
       y="-83.614304"
       x="-219.43491"
       height="78.88633"
       width="220.2448"
       id="rect847-3"
       style="fill:#ffffff;fill-opacity:1;stroke:#949494;stroke-width:0.529167;stroke-linecap:square;stroke-linejoin:round;stroke-miterlimit:4;stroke-dasharray:none;stroke-opacity:1;paint-order:stroke markers fill" />
    <text
       id="text851-5"
       y="-66.839249"
       x="-210.0444"
       style="font-style:normal;font-variant:normal;font-weight:bold;font-stretch:normal;font-size:7.7611px;line-height:1.25;font-family:Arial;-inkscape-font-specification:'Arial Bold';letter-spacing:0px;word-spacing:0px;fill:#0b69ff;fill-opacity:1;stroke-width:0.195703"
       xml:space="preserve"><tspan
         style="font-style:normal;font-variant:normal;font-weight:bold;font-stretch:normal;font-size:7.7611px;font-family:Arial;-inkscape-font-specification:'Arial Bold';fill:#0b69ff;fill-opacity:1;stroke-width:0.195703"
         y="-66.839249"
         x="-210.0444"
         id="tspan849-0"
         sodipodi:role="line">AnimatedBottomBar</tspan></text>
    <text
       id="text869-0"
       y="-52.578373"
       x="-210.47792"
       style="font-weight:bold;font-size:6.35px;line-height:1.5;font-family:Rockwell;-inkscape-font-specification:'Rockwell Bold';letter-spacing:0px;word-spacing:0px;fill:#000000;fill-opacity:1;stroke-width:0.264583"
       xml:space="preserve"><tspan
         style="font-style:normal;font-variant:normal;font-weight:normal;font-stretch:normal;font-size:6.35px;font-family:Arial;-inkscape-font-specification:Arial;fill:#000000;fill-opacity:1;stroke-width:0.264583"
         y="-52.578373"
         x="-210.47792"
         id="tspan867-0"
         sodipodi:role="line">A customizable and easy to use BottomBar navigation view with sleek </tspan><tspan
         id="tspan875-1"
         style="font-style:normal;font-variant:normal;font-weight:normal;font-stretch:normal;font-size:6.35px;font-family:Arial;-inkscape-font-specification:Arial;fill:#000000;fill-opacity:1;stroke-width:0.264583"
         y="-42.94516"
         x="-210.47792"
         sodipodi:role="line">animations, with support for ViewPager, ViewPager2, NavController, and </tspan><tspan
         id="tspan877-9"
         style="font-style:normal;font-variant:normal;font-weight:normal;font-stretch:normal;font-size:6.35px;font-family:Arial;-inkscape-font-specification:Arial;fill:#000000;fill-opacity:1;stroke-width:0.264583"
         y="-33.311951"
         x="-210.47792"
         sodipodi:role="line">badges.</tspan><tspan
         id="tspan871-7"
         style="font-style:normal;font-variant:normal;font-weight:normal;font-stretch:normal;font-size:6.35px;font-family:Arial;-inkscape-font-specification:Arial;fill:#000000;fill-opacity:1;stroke-width:0.264583"
         y="-23.678738"
         x="-210.47792"
         sodipodi:role="line" /><tspan
         id="tspan873-6"
         style="font-style:normal;font-variant:normal;font-weight:normal;font-stretch:normal;font-size:6.35px;font-family:Arial;-inkscape-font-specification:Arial;fill:#000000;fill-opacity:1;stroke-width:0.264583"
         y="-14.153737"
         x="-210.47792"
         sodipodi:role="line" /></text>
    <text
       id="text869-4-0-7"
       y="-15.543185"
       x="-143.03136"
       style="font-weight:bold;font-size:6.35px;line-height:1.5;font-family:Rockwell;-inkscape-font-specification:'Rockwell Bold';letter-spacing:0px;word-spacing:0px;fill:#000000;fill-opacity:1;stroke-width:0.264583"
       xml:space="preserve"><tspan
         style="font-style:normal;font-variant:normal;font-weight:normal;font-stretch:normal;font-size:6.35px;font-family:Arial;-inkscape-font-specification:Arial;fill:#000000;fill-opacity:1;stroke-width:0.264583"
         y="-15.543185"
         x="-143.03136"
         sodipodi:role="line"
         id="tspan925-7">62</tspan></text>
    <path
       id="path929-0"
       d="m -150.40495,-20.518555 a 0.37498205,0.37498205 0 1 1 -0.74996,0 0.37498205,0.37498205 0 0 1 0.74996,0 z m 0,1.06095 a 1.1249436,1.1249436 0 1 0 -0.74996,0 v 0.43897 a 1.1249436,1.1249436 0 0 0 1.12494,1.12496 h 0.74996 v 1.06393 a 1.1254436,1.1254436 0 1 0 0.74996,0 v -1.06393 h 0.74997 a 1.1249436,1.1249436 0 0 0 1.12494,-1.12496 v -0.43897 a 1.1249436,1.1249436 0 1 0 -0.74996,0 v 0.43897 a 0.37498123,0.37498123 0 0 1 -0.37498,0.37499 h -2.24989 a 0.37498123,0.37498123 0 0 1 -0.37498,-0.37499 z m 1.8749,3.68883 a 0.37498123,0.37498123 0 1 1 -0.74996,0 0.37498123,0.37498123 0 0 1 0.74996,0 z m 1.49993,-4.37481 a 0.37498123,0.37498123 0 1 0 0,-0.74994 0.37498123,0.37498123 0 0 0 0,0.74994 z"
       fill-rule="evenodd"
       style="fill:#000000;fill-opacity:1;stroke-width:0.499975" />
    <path
       id="path940-0"
       d="m -179.58292,-22.08532 a 0.37068353,0.37068353 0 0 1 0.33263,0.206592 l 0.93017,1.885543 2.08077,0.30247 a 0.37068353,0.37068353 0 0 1 0.20561,0.63214 l -1.50547,1.46792 0.35536,2.07187 a 0.37068353,0.37068353 0 0 1 -0.53774,0.39093 l -1.86133,-0.97859 -1.86132,0.97859 a 0.37068353,0.37068353 0 0 1 -0.53774,-0.39044 l 0.35586,-2.07286 -1.50646,-1.46742 a 0.37068353,0.37068353 0 0 1 0.2056,-0.63262 l 2.08077,-0.30199 0.93067,-1.885543 a 0.37068353,0.37068353 0 0 1 0.33262,-0.206592 z m 0,1.208425 -0.68453,1.38636 a 0.37068353,0.37068353 0 0 1 -0.27875,0.20264 l -1.53068,0.22242 1.10711,1.07942 a 0.37068353,0.37068353 0 0 1 0.10676,0.32817 l -0.26096,1.52427 1.36856,-0.71964 a 0.37068353,0.37068353 0 0 1 0.34498,0 l 1.36906,0.71964 -0.26195,-1.52427 a 0.37068353,0.37068353 0 0 1 0.10676,-0.32817 l 1.10711,-1.07894 -1.53018,-0.22241 a 0.37068353,0.37068353 0 0 1 -0.27876,-0.20264 l -0.68453,-1.38733 z"
       fill-rule="evenodd"
       style="fill:#000000;fill-opacity:1;stroke-width:0.494244" />
    <text
       xml:space="preserve"
       style="font-style:normal;font-variant:normal;font-weight:normal;font-stretch:normal;font-size:6.35px;line-height:1.25;font-family:Arial;-inkscape-font-specification:Arial;letter-spacing:0px;word-spacing:0px;fill:#000000;fill-opacity:1;stroke-width:0.264583"
       x="-210.3862"
       y="-15.381045"
       id="text953-7"><tspan
         sodipodi:role="line"
         id="tspan951-1"
         x="-210.3862"
         y="-15.381045"
         style="font-style:normal;font-variant:normal;font-weight:normal;font-stretch:normal;font-size:6.35px;font-family:Arial;-inkscape-font-specification:Arial;fill:#000000;fill-opacity:1;stroke-width:0.264583">Kotlin</tspan></text>
    <rect
       ry="3.2128997"
       y="-22.434988"
       x="-175.28186"
       height="8.9771385"
       width="13.862915"
       id="rect1045"
       style="fill:#0b69ff;fill-opacity:0.253012;stroke:#0b69ff;stroke-width:0.808831;stroke-linecap:round;stroke-linejoin:round;stroke-miterlimit:4;stroke-dasharray:none;stroke-opacity:1;paint-order:stroke markers fill" />
    <path
       sodipodi:nodetypes="cc"
       id="path1074"
       d="m -162.04323,-14.703062 c 9.31227,5.2124433 -3.39616,28.271497 10.89523,28.584667"
       style="fill:none;stroke:#0b69ff;stroke-width:1.05833;stroke-linecap:butt;stroke-linejoin:miter;stroke-miterlimit:4;stroke-dasharray:none;stroke-opacity:1" />
    <path
       d="m -150.09105,-8.1779681 h 89.940538 c 0.988817,0 1.784872,0.91825 1.784872,2.05886 V 27.783582 c 0,1.14062 -0.796055,2.05887 -1.784872,2.05887 h -89.940538 c -0.98882,0 -1.78487,-0.91825 -1.78487,-2.05887 V -6.1191081 c 0,-1.14061 0.79605,-2.05886 1.78487,-2.05886 z"
       style="opacity:1;fill:#21262d;fill-opacity:1;stroke:none;stroke-width:1.02526;stroke-linecap:round;stroke-linejoin:round;stroke-miterlimit:4;stroke-dasharray:none;stroke-opacity:1;paint-order:fill markers stroke"
       id="rect1045-9" />
    <path
       d="m -145.42952,0.82187 -0.31919,0.32211 -1.96783,-1.64279 1.96783,-1.64279 0.31919,0.32504 -1.59594,1.3119 z"
       style="font-style:normal;font-variant:normal;font-weight:normal;font-stretch:normal;font-size:5.99722px;line-height:1.25;font-family:consolas;-inkscape-font-specification:consolas;letter-spacing:0px;word-spacing:0px;fill:#79c0ff;fill-opacity:1;stroke-width:0.264583"
       id="path1160" />
    <path
       d="m -141.86867,-2.07425 q -0.21377,-0.1142 -0.43925,-0.1757 -0.22548,-0.0644 -0.49196,-0.0644 -0.30455,0 -0.54174,0.10835 -0.2372,0.10834 -0.40118,0.30747 -0.16106,0.1962 -0.24891,0.47439 -0.0849,0.27819 -0.0849,0.61495 0,0.3514 0.0703,0.62959 0.0703,0.27819 0.21963,0.47146 0.14934,0.19327 0.38068,0.29576 0.23426,0.10249 0.55931,0.10249 0.0556,0 0.12006,-0.006 0.0644,-0.006 0.12885,-0.0146 0.0644,-0.0117 0.12299,-0.0264 0.0615,-0.0146 0.10835,-0.0322 v -1.21819 h -0.78187 v -0.43046 h 1.29725 v 1.95612 q -0.12006,0.0556 -0.25476,0.0996 -0.13178,0.0439 -0.27234,0.0732 -0.13763,0.0293 -0.27526,0.0439 -0.13763,0.0146 -0.26648,0.0146 -0.3924,0 -0.70866,-0.12299 -0.31333,-0.12299 -0.53588,-0.36311 -0.21962,-0.24305 -0.33969,-0.60324 -0.11713,-0.36018 -0.11713,-0.83457 0,-0.47146 0.13177,-0.84336 0.13178,-0.37483 0.36897,-0.63252 0.24013,-0.26062 0.57396,-0.39532 0.33676,-0.13764 0.74086,-0.13764 0.2577,0 0.48904,0.0469 0.23426,0.0439 0.44803,0.14349 z"
       style="font-style:normal;font-variant:normal;font-weight:normal;font-stretch:normal;font-size:5.99722px;line-height:1.25;font-family:consolas;-inkscape-font-specification:consolas;letter-spacing:0px;word-spacing:0px;fill:#76cb67;fill-opacity:1;stroke-width:0.264583"
       id="path1162" />
    <path
       d="m -140.04139,-1.42123 h -0.86972 v -0.42168 h 1.3851 v 2.51543 h 0.87557 v 0.42461 h -2.3573 V 0.67252 h 0.96635 z m 0.17863,-1.65451 q 0.0849,0 0.15813,0.0322 0.0732,0.0293 0.12591,0.0849 0.0556,0.0556 0.0849,0.12885 0.0322,0.0703 0.0322,0.1552 0,0.082 -0.0322,0.1552 -0.0293,0.0732 -0.0849,0.12885 -0.0527,0.0556 -0.12591,0.0879 -0.0732,0.0293 -0.15813,0.0293 -0.0849,0 -0.15813,-0.0293 -0.0732,-0.0322 -0.12885,-0.0879 -0.0527,-0.0556 -0.0849,-0.12885 -0.0293,-0.0732 -0.0293,-0.1552 0,-0.0849 0.0293,-0.1552 0.0322,-0.0732 0.0849,-0.12885 0.0556,-0.0556 0.12885,-0.0849 0.0732,-0.0322 0.15813,-0.0322 z"
       style="font-style:normal;font-variant:normal;font-weight:normal;font-stretch:normal;font-size:5.99722px;line-height:1.25;font-family:consolas;-inkscape-font-specification:consolas;letter-spacing:0px;word-spacing:0px;fill:#76cb67;fill-opacity:1;stroke-width:0.264583"
       id="path1164" />
    <path
       d="m -135.37071,1.05614 q -0.17277,0.0439 -0.35725,0.0615 -0.18449,0.0205 -0.37483,0.0205 -0.55345,0 -0.82579,-0.24891 -0.27233,-0.25184 -0.27233,-0.77015 v -1.53445 h -0.82286 V -1.8429 h 0.82286 v -0.80822 l 0.50953,-0.13178 v 0.94 h 1.32067 v 0.42753 h -1.32067 v 1.49345 q 0,0.31626 0.16691,0.47439 0.16985,0.1552 0.49782,0.1552 0.14056,0 0.30747,-0.0205 0.16692,-0.0234 0.34847,-0.0703 z"
       style="font-style:normal;font-variant:normal;font-weight:normal;font-stretch:normal;font-size:5.99722px;line-height:1.25;font-family:consolas;-inkscape-font-specification:consolas;letter-spacing:0px;word-spacing:0px;fill:#76cb67;fill-opacity:1;stroke-width:0.264583"
       id="path1166" />
    <path
       d="m -131.92992,1.09713 h -0.52124 v -1.757 h -1.60765 v 1.757 h -0.52125 V -2.7302 h 0.52125 v 1.61937 h 1.60765 V -2.7302 h 0.52124 z"
       style="font-style:normal;font-variant:normal;font-weight:normal;font-stretch:normal;font-size:5.99722px;line-height:1.25;font-family:consolas;-inkscape-font-specification:consolas;letter-spacing:0px;word-spacing:0px;fill:#76cb67;fill-opacity:1;stroke-width:0.264583"
       id="path1168" />
    <path
       d="m -128.77025,1.09713 h -0.45682 l -0.0176,-0.47439 q -0.13177,0.15228 -0.25184,0.25477 -0.11713,0.0996 -0.23426,0.16106 -0.11714,0.0615 -0.2372,0.0849 -0.11713,0.0264 -0.2489,0.0264 -0.4539,0 -0.68523,-0.26648 -0.23134,-0.26647 -0.23134,-0.80529 v -1.92098 h 0.50953 v 1.87999 q 0,0.67644 0.50953,0.67644 0.0937,0 0.18155,-0.0263 0.0908,-0.0293 0.18742,-0.0966 0.0996,-0.0703 0.21084,-0.18741 0.1142,-0.11714 0.25476,-0.29576 v -1.95027 h 0.50953 z"
       style="font-style:normal;font-variant:normal;font-weight:normal;font-stretch:normal;font-size:5.99722px;line-height:1.25;font-family:consolas;-inkscape-font-specification:consolas;letter-spacing:0px;word-spacing:0px;fill:#76cb67;fill-opacity:1;stroke-width:0.264583"
       id="path1170" />
    <path
       d="m -125.31775,-0.4256 q 0,0.36604 -0.10249,0.65595 -0.0996,0.28697 -0.28697,0.48903 -0.18449,0.19912 -0.45097,0.30747 -0.26648,0.10542 -0.60031,0.10542 -0.26062,0 -0.53295,-0.0498 -0.27234,-0.0498 -0.53881,-0.15813 v -3.96496 h 0.50953 v 1.13912 l -0.0234,0.54467 q 0.21962,-0.29576 0.46853,-0.41582 0.25184,-0.12299 0.53881,-0.12299 0.25184,0 0.44218,0.10542 0.19034,0.10542 0.31919,0.29869 0.12885,0.19034 0.19327,0.46267 0.0644,0.26941 0.0644,0.60324 z m -0.52124,0.0234 q 0,-0.23134 -0.0351,-0.42461 -0.0322,-0.19327 -0.10542,-0.3309 -0.0732,-0.13763 -0.18741,-0.21377 -0.11421,-0.0791 -0.27234,-0.0791 -0.0966,0 -0.1962,0.0322 -0.0996,0.0293 -0.20791,0.10249 -0.10542,0.0703 -0.22548,0.19034 -0.11713,0.11713 -0.25183,0.29283 v 1.4261 q 0.14934,0.0586 0.30454,0.0937 0.1552,0.0322 0.29576,0.0322 0.1757,0 0.33383,-0.0556 0.16106,-0.0556 0.28112,-0.18449 0.12299,-0.13177 0.19327,-0.34554 0.0732,-0.2167 0.0732,-0.53588 z"
       style="font-style:normal;font-variant:normal;font-weight:normal;font-stretch:normal;font-size:5.99722px;line-height:1.25;font-family:consolas;-inkscape-font-specification:consolas;letter-spacing:0px;word-spacing:0px;fill:#76cb67;fill-opacity:1;stroke-width:0.264583"
       id="path1172" />
    <path
       d="m -121.91796,1.09713 h -0.58859 l -0.57103,-1.22404 q -0.0644,-0.14056 -0.13177,-0.23134 -0.0673,-0.0937 -0.14642,-0.14641 -0.0761,-0.0556 -0.16984,-0.0791 -0.0908,-0.0234 -0.20498,-0.0234 h -0.24598 v 1.70429 h -0.52125 V -2.7302 h 1.02492 q 0.33383,0 0.57395,0.0732 0.24013,0.0732 0.3924,0.20499 0.1552,0.13177 0.22548,0.31918 0.0732,0.18449 0.0732,0.40997 0,0.17863 -0.0527,0.33969 -0.0527,0.15813 -0.15813,0.2899 -0.10249,0.12885 -0.25769,0.22548 -0.15228,0.0937 -0.3514,0.14056 0.16105,0.0556 0.27233,0.1962 0.11421,0.13763 0.23134,0.36897 z m -0.83457,-2.77606 q 0,-0.30747 -0.19327,-0.45974 -0.19034,-0.15228 -0.53881,-0.15228 h -0.49196 v 1.26504 h 0.42168 q 0.18448,0 0.3309,-0.041 0.14934,-0.0439 0.25183,-0.12592 0.10542,-0.0849 0.16106,-0.20499 0.0586,-0.12299 0.0586,-0.28112 z"
       style="font-style:normal;font-variant:normal;font-weight:normal;font-stretch:normal;font-size:5.99722px;line-height:1.25;font-family:consolas;-inkscape-font-specification:consolas;letter-spacing:0px;word-spacing:0px;fill:#76cb67;fill-opacity:1;stroke-width:0.264583"
       id="path1174" />
    <path
       d="m -118.74072,-0.52809 q 0,0.10835 -0.003,0.18155 -0.003,0.0732 -0.009,0.13764 h -2.06447 q 0,0.45096 0.25183,0.69401 0.25184,0.24012 0.72623,0.24012 0.12884,0 0.25769,-0.009 0.12885,-0.0117 0.24891,-0.0293 0.12006,-0.0176 0.22841,-0.0381 0.11128,-0.0234 0.20498,-0.0498 v 0.41875 q -0.20791,0.0586 -0.47146,0.0937 -0.26062,0.0381 -0.54174,0.0381 -0.37776,0 -0.65009,-0.10249 -0.27233,-0.10249 -0.44803,-0.29576 -0.17278,-0.1962 -0.2577,-0.47732 -0.082,-0.28405 -0.082,-0.6413 0,-0.31041 0.0878,-0.58567 0.0908,-0.27819 0.26062,-0.4861 0.17277,-0.21084 0.42168,-0.33383 0.24891,-0.12299 0.56517,-0.12299 0.30747,0 0.54467,0.0966 0.23719,0.0966 0.39825,0.27527 0.16399,0.1757 0.24598,0.43046 0.0849,0.25184 0.0849,0.56517 z m -0.53003,-0.0732 q 0.009,-0.1962 -0.0381,-0.35726 -0.0469,-0.16398 -0.14642,-0.28112 -0.0966,-0.11713 -0.24305,-0.18155 -0.14642,-0.0673 -0.33969,-0.0673 -0.16691,0 -0.30455,0.0644 -0.13763,0.0644 -0.23719,0.18156 -0.0996,0.11713 -0.16106,0.28112 -0.0615,0.16398 -0.0761,0.36018 z"
       style="font-style:normal;font-variant:normal;font-weight:normal;font-stretch:normal;font-size:5.99722px;line-height:1.25;font-family:consolas;-inkscape-font-specification:consolas;letter-spacing:0px;word-spacing:0px;fill:#76cb67;fill-opacity:1;stroke-width:0.264583"
       id="path1176" />
    <path
       d="m -115.40828,-0.4256 q 0,0.3924 -0.11128,0.68523 -0.10834,0.29283 -0.30161,0.4861 -0.19327,0.19327 -0.45682,0.28991 -0.26355,0.0966 -0.57103,0.0966 -0.14056,0 -0.28112,-0.0146 -0.13763,-0.0146 -0.28112,-0.0498 v 1.2299 h -0.50953 v -4.14066 h 0.45389 l 0.0322,0.49196 q 0.21962,-0.30162 0.46853,-0.42168 0.24891,-0.12299 0.53881,-0.12299 0.25184,0 0.44218,0.10542 0.19034,0.10542 0.31919,0.29869 0.12884,0.19034 0.19327,0.46267 0.0644,0.26941 0.0644,0.60324 z m -0.52124,0.0234 q 0,-0.23134 -0.0351,-0.42461 -0.0322,-0.19327 -0.10542,-0.3309 -0.0732,-0.13763 -0.18742,-0.21377 -0.1142,-0.0791 -0.27233,-0.0791 -0.0966,0 -0.1962,0.0322 -0.0996,0.0293 -0.20791,0.10249 -0.10542,0.0703 -0.22548,0.19034 -0.11713,0.11713 -0.25184,0.29283 v 1.4261 q 0.14056,0.0586 0.29576,0.0937 0.15521,0.0322 0.30455,0.0322 0.4129,0 0.64716,-0.27819 0.23427,-0.28112 0.23427,-0.84336 z"
       style="font-style:normal;font-variant:normal;font-weight:normal;font-stretch:normal;font-size:5.99722px;line-height:1.25;font-family:consolas;-inkscape-font-specification:consolas;letter-spacing:0px;word-spacing:0px;fill:#76cb67;fill-opacity:1;stroke-width:0.264583"
       id="path1178" />
    <path
       d="m -112.05827,-0.39632 q 0,0.34262 -0.0966,0.62959 -0.0966,0.28405 -0.27819,0.48904 -0.18155,0.20205 -0.44217,0.31626 -0.26063,0.11127 -0.59153,0.11127 -0.31626,0 -0.56809,-0.0966 -0.24891,-0.0996 -0.42461,-0.28991 -0.17277,-0.19034 -0.26648,-0.47146 -0.0908,-0.28112 -0.0908,-0.64716 0,-0.34261 0.0966,-0.62373 0.0966,-0.28405 0.27819,-0.48611 0.18156,-0.20498 0.44218,-0.31626 0.26062,-0.1142 0.59152,-0.1142 0.31626,0 0.56517,0.0996 0.25183,0.0966 0.42461,0.28698 0.17569,0.18741 0.26647,0.46853 0.0937,0.28112 0.0937,0.64423 z m -0.52124,0.0234 q 0,-0.27233 -0.0615,-0.47439 -0.0586,-0.20498 -0.16984,-0.33969 -0.11128,-0.13763 -0.27234,-0.20498 -0.15813,-0.0703 -0.35432,-0.0703 -0.22841,0 -0.3924,0.0908 -0.16106,0.0879 -0.26648,0.23719 -0.10249,0.14935 -0.15227,0.34848 -0.0468,0.19619 -0.0468,0.41289 0,0.27233 0.0586,0.47732 0.0615,0.20498 0.17277,0.34261 0.11128,0.13471 0.26941,0.20499 0.15813,0.0673 0.35726,0.0673 0.22841,0 0.38946,-0.0879 0.16399,-0.0908 0.26648,-0.24013 0.10542,-0.14934 0.15228,-0.34554 0.0498,-0.19913 0.0498,-0.41875 z"
       style="font-style:normal;font-variant:normal;font-weight:normal;font-stretch:normal;font-size:5.99722px;line-height:1.25;font-family:consolas;-inkscape-font-specification:consolas;letter-spacing:0px;word-spacing:0px;fill:#76cb67;fill-opacity:1;stroke-width:0.264583"
       id="path1180" />
    <path
       d="m -138.67972,8.59366 h -0.45682 l -0.0176,-0.47439 q -0.13177,0.15227 -0.25183,0.25476 -0.11714,0.0996 -0.23427,0.16106 -0.11713,0.0615 -0.23719,0.0849 -0.11714,0.0264 -0.24891,0.0264 -0.45389,0 -0.68523,-0.26648 -0.23134,-0.26648 -0.23134,-0.80529 V 5.65363 h 0.50953 v 1.87999 q 0,0.67645 0.50953,0.67645 0.0937,0 0.18156,-0.0264 0.0908,-0.0293 0.18741,-0.0966 0.0996,-0.0703 0.21084,-0.18742 0.1142,-0.11713 0.25476,-0.29576 V 5.65362 h 0.50953 z"
       style="font-style:normal;font-variant:normal;font-weight:normal;font-stretch:normal;font-size:5.99722px;line-height:1.25;font-family:consolas;-inkscape-font-specification:consolas;letter-spacing:0px;word-spacing:0px;fill:#79c0ff;fill-opacity:1;stroke-width:0.264583"
       id="path1182" />
    <path
       d="m -135.4117,7.79129 q 0,0.15521 -0.0527,0.2782 -0.0527,0.12299 -0.14349,0.21962 -0.0908,0.0937 -0.21084,0.16106 -0.12006,0.0674 -0.25769,0.11128 -0.13471,0.0439 -0.27819,0.0644 -0.14349,0.0205 -0.28112,0.0205 -0.29869,0 -0.55053,-0.0264 -0.24891,-0.0264 -0.48903,-0.0849 V 8.06652 q 0.25769,0.0732 0.51246,0.11127 0.25476,0.0381 0.5066,0.0381 0.36604,0 0.54174,-0.0996 0.1757,-0.0996 0.1757,-0.28405 0,-0.0791 -0.0293,-0.14056 -0.0264,-0.0644 -0.0996,-0.12006 -0.0732,-0.0586 -0.22841,-0.12006 -0.15227,-0.0615 -0.41875,-0.14056 -0.19913,-0.0586 -0.36897,-0.13178 -0.16692,-0.0761 -0.28991,-0.17862 -0.12299,-0.1025 -0.19327,-0.24013 -0.0703,-0.13763 -0.0703,-0.32504 0,-0.12299 0.0556,-0.26941 0.0586,-0.14642 0.1962,-0.27233 0.13763,-0.12592 0.3719,-0.20792 0.23427,-0.0849 0.58567,-0.0849 0.17277,0 0.38361,0.0205 0.21084,0.0176 0.43925,0.0644 v 0.4539 q -0.24013,-0.0586 -0.45682,-0.0849 -0.21377,-0.0293 -0.3719,-0.0293 -0.19034,0 -0.32212,0.0293 -0.12884,0.0293 -0.21084,0.082 -0.0791,0.0498 -0.1142,0.12006 -0.0351,0.0673 -0.0351,0.14642 0,0.0791 0.0293,0.14348 0.0322,0.0644 0.1142,0.12592 0.0849,0.0586 0.23427,0.12006 0.14934,0.0586 0.38947,0.12885 0.26062,0.0761 0.43925,0.16106 0.17863,0.082 0.2899,0.18448 0.11128,0.10249 0.15813,0.23134 0.0498,0.12885 0.0498,0.29283 z"
       style="font-style:normal;font-variant:normal;font-weight:normal;font-stretch:normal;font-size:5.99722px;line-height:1.25;font-family:consolas;-inkscape-font-specification:consolas;letter-spacing:0px;word-spacing:0px;fill:#79c0ff;fill-opacity:1;stroke-width:0.264583"
       id="path1184" />
    <path
       d="m -131.95334,6.96843 q 0,0.10835 -0.003,0.18156 -0.003,0.0732 -0.009,0.13763 h -2.06447 q 0,0.45096 0.25184,0.69402 0.25183,0.24012 0.72622,0.24012 0.12885,0 0.25769,-0.009 0.12885,-0.0117 0.24891,-0.0293 0.12006,-0.0176 0.22841,-0.0381 0.11128,-0.0234 0.20499,-0.0498 v 0.41875 q -0.20792,0.0586 -0.47146,0.0937 -0.26063,0.0381 -0.54175,0.0381 -0.37775,0 -0.65008,-0.10249 -0.27234,-0.1025 -0.44804,-0.29577 -0.17277,-0.19619 -0.25769,-0.47731 -0.082,-0.28405 -0.082,-0.64131 0,-0.3104 0.0879,-0.58566 0.0908,-0.2782 0.26062,-0.48611 0.17277,-0.21084 0.42168,-0.33383 0.24891,-0.12299 0.56516,-0.12299 0.30748,0 0.54467,0.0966 0.2372,0.0966 0.39825,0.27526 0.16399,0.1757 0.24598,0.43047 0.0849,0.25183 0.0849,0.56516 z m -0.53003,-0.0732 q 0.009,-0.1962 -0.0381,-0.35726 -0.0468,-0.16399 -0.14642,-0.28112 -0.0966,-0.11713 -0.24305,-0.18156 -0.14642,-0.0673 -0.33969,-0.0673 -0.16691,0 -0.30454,0.0644 -0.13763,0.0644 -0.2372,0.18156 -0.0996,0.11713 -0.16106,0.28112 -0.0615,0.16399 -0.0761,0.36019 z"
       style="font-style:normal;font-variant:normal;font-weight:normal;font-stretch:normal;font-size:5.99722px;line-height:1.25;font-family:consolas;-inkscape-font-specification:consolas;letter-spacing:0px;word-spacing:0px;fill:#79c0ff;fill-opacity:1;stroke-width:0.264583"
       id="path1186" />
    <path
       d="m -131.01335,5.65361 h 0.4656 l 0.0147,0.54174 q 0.26062,-0.31333 0.51245,-0.45389 0.25477,-0.14056 0.51246,-0.14056 0.45682,0 0.69109,0.29576 0.23719,0.29577 0.21962,0.8785 h -0.51538 q 0.009,-0.38654 -0.11421,-0.55931 -0.12006,-0.1757 -0.35433,-0.1757 -0.10249,0 -0.20791,0.0381 -0.10249,0.0351 -0.21377,0.11713 -0.10834,0.0791 -0.23133,0.20499 -0.12299,0.12592 -0.26355,0.30454 v 1.88878 h -0.51539 z"
       style="font-style:normal;font-variant:normal;font-weight:normal;font-stretch:normal;font-size:5.99722px;line-height:1.25;font-family:consolas;-inkscape-font-specification:consolas;letter-spacing:0px;word-spacing:0px;fill:#79c0ff;fill-opacity:1;stroke-width:0.264583"
       id="path1188" />
    <path
       d="m -125.39096,6.70196 h -2.51836 V 6.27149 h 2.51836 z m 0,1.01905 h -2.51836 V 7.29055 h 2.51836 z"
       style="font-style:normal;font-variant:normal;font-weight:normal;font-stretch:normal;font-size:5.99722px;line-height:1.25;font-family:consolas;-inkscape-font-specification:consolas;letter-spacing:0px;word-spacing:0px;fill:#79c0ff;fill-opacity:1;stroke-width:0.264583"
       id="path1190" />
    <path
       d="m -123.60655,4.45593 -0.082,1.37338 h -0.48024 l -0.0849,-1.37338 z m 1.13913,0 -0.082,1.37338 h -0.48024 l -0.0849,-1.37338 z"
       style="font-style:normal;font-variant:normal;font-weight:normal;font-stretch:normal;font-size:5.99722px;line-height:1.25;font-family:consolas;-inkscape-font-specification:consolas;letter-spacing:0px;word-spacing:0px;fill:#a1d6ff;fill-opacity:1;stroke-width:0.264583"
       id="path1194" />
    <path
       d="m -118.62253,6.63753 q 0,0.27527 -0.0439,0.5271 -0.041,0.25184 -0.13471,0.46853 -0.0937,0.2167 -0.24305,0.39533 -0.14934,0.1757 -0.36604,0.30162 -0.2167,0.12592 -0.50367,0.1962 -0.28698,0.0673 -0.65302,0.0673 h -0.81993 V 4.76628 H -120.4 q 0.89606,0 1.33531,0.46268 0.44218,0.45974 0.44218,1.40852 z m -0.5476,0.0381 q 0,-0.40704 -0.0761,-0.68816 -0.0761,-0.28112 -0.23134,-0.45389 -0.1552,-0.17277 -0.38947,-0.24891 -0.23426,-0.0791 -0.55052,-0.0791 h -0.44804 v 2.93711 h 0.38947 q 1.30603,0 1.30603,-1.46709 z"
       style="font-style:normal;font-variant:normal;font-weight:normal;font-stretch:normal;font-size:5.99722px;line-height:1.25;font-family:consolas;-inkscape-font-specification:consolas;letter-spacing:0px;word-spacing:0px;fill:#a1d6ff;fill-opacity:1;stroke-width:0.264583"
       id="path1196" />
    <path
       d="m -117.81431,5.65361 h 0.46561 l 0.0146,0.54174 q 0.26062,-0.31333 0.51245,-0.45389 0.25477,-0.14056 0.51246,-0.14056 0.45682,0 0.69109,0.29576 0.23719,0.29577 0.21962,0.8785 h -0.51538 q 0.009,-0.38654 -0.11421,-0.55931 -0.12006,-0.1757 -0.35433,-0.1757 -0.10249,0 -0.20791,0.0381 -0.10249,0.0351 -0.21377,0.11713 -0.10834,0.0791 -0.23133,0.20499 -0.12299,0.12592 -0.26355,0.30454 v 1.88878 h -0.51539 z"
       style="font-style:normal;font-variant:normal;font-weight:normal;font-stretch:normal;font-size:5.99722px;line-height:1.25;font-family:consolas;-inkscape-font-specification:consolas;letter-spacing:0px;word-spacing:0px;fill:#a1d6ff;fill-opacity:1;stroke-width:0.264583"
       id="path1198" />
    <path
       d="m -112.07185,7.10021 q 0,0.34261 -0.0966,0.62959 -0.0966,0.28405 -0.27819,0.48903 -0.18156,0.20206 -0.44218,0.31626 -0.26062,0.11128 -0.59152,0.11128 -0.31626,0 -0.5681,-0.0966 -0.2489,-0.0996 -0.4246,-0.2899 -0.17277,-0.19034 -0.26648,-0.47146 -0.0908,-0.28112 -0.0908,-0.64717 0,-0.34261 0.0966,-0.62373 0.0966,-0.28405 0.27819,-0.4861 0.18155,-0.20499 0.44217,-0.31626 0.26063,-0.11421 0.59153,-0.11421 0.31626,0 0.56517,0.0996 0.25183,0.0966 0.4246,0.28697 0.1757,0.18742 0.26648,0.46854 0.0937,0.28112 0.0937,0.64423 z m -0.52125,0.0234 q 0,-0.27233 -0.0615,-0.47438 -0.0586,-0.20499 -0.16984,-0.33969 -0.11128,-0.13763 -0.27234,-0.20498 -0.15813,-0.0703 -0.35433,-0.0703 -0.22841,0 -0.39239,0.0908 -0.16106,0.0879 -0.26648,0.2372 -0.10249,0.14934 -0.15227,0.34847 -0.0469,0.1962 -0.0469,0.41289 0,0.27234 0.0586,0.47732 0.0615,0.20499 0.17277,0.34262 0.11128,0.1347 0.26941,0.20498 0.15813,0.0674 0.35725,0.0674 0.22841,0 0.38947,-0.0879 0.16399,-0.0908 0.26648,-0.24012 0.10542,-0.14935 0.15227,-0.34554 0.0498,-0.19913 0.0498,-0.41876 z"
       style="font-style:normal;font-variant:normal;font-weight:normal;font-stretch:normal;font-size:5.99722px;line-height:1.25;font-family:consolas;-inkscape-font-specification:consolas;letter-spacing:0px;word-spacing:0px;fill:#a1d6ff;fill-opacity:1;stroke-width:0.264583"
       id="path1200" />
    <path
       d="m -108.81555,7.07093 q 0,0.39239 -0.11127,0.68522 -0.10835,0.29284 -0.30162,0.48611 -0.19327,0.19327 -0.45682,0.2899 -0.26355,0.0966 -0.57103,0.0966 -0.14056,0 -0.28112,-0.0147 -0.13763,-0.0146 -0.28112,-0.0498 v 1.2299 h -0.50953 V 5.6535 h 0.4539 l 0.0322,0.49196 q 0.21962,-0.30162 0.46853,-0.42168 0.24891,-0.12299 0.53881,-0.12299 0.25184,0 0.44218,0.10542 0.19034,0.10542 0.31919,0.29869 0.12885,0.19034 0.19327,0.46268 0.0644,0.26941 0.0644,0.60324 z m -0.52124,0.0234 q 0,-0.23134 -0.0351,-0.42461 -0.0322,-0.19327 -0.10542,-0.3309 -0.0732,-0.13763 -0.18741,-0.21377 -0.11421,-0.0791 -0.27234,-0.0791 -0.0966,0 -0.1962,0.0322 -0.0996,0.0293 -0.20791,0.10249 -0.10542,0.0703 -0.22548,0.19034 -0.11713,0.11714 -0.25184,0.29284 v 1.42609 q 0.14056,0.0586 0.29577,0.0937 0.1552,0.0322 0.30454,0.0322 0.4129,0 0.64716,-0.27819 0.23427,-0.28112 0.23427,-0.84336 z"
       style="font-style:normal;font-variant:normal;font-weight:normal;font-stretch:normal;font-size:5.99722px;line-height:1.25;font-family:consolas;-inkscape-font-specification:consolas;letter-spacing:0px;word-spacing:0px;fill:#a1d6ff;fill-opacity:1;stroke-width:0.264583"
       id="path1202" />
    <path
       d="m -105.51239,7.07093 q 0,0.39239 -0.11128,0.68522 -0.10835,0.29284 -0.30162,0.48611 -0.19327,0.19327 -0.45682,0.2899 -0.26355,0.0966 -0.57102,0.0966 -0.14056,0 -0.28112,-0.0147 -0.13763,-0.0146 -0.28112,-0.0498 v 1.2299 h -0.50953 V 5.6535 h 0.45389 l 0.0322,0.49196 q 0.21963,-0.30162 0.46853,-0.42168 0.24891,-0.12299 0.53882,-0.12299 0.25183,0 0.44218,0.10542 0.19034,0.10542 0.31918,0.29869 0.12885,0.19034 0.19327,0.46268 0.0644,0.26941 0.0644,0.60324 z m -0.52125,0.0234 q 0,-0.23134 -0.0351,-0.42461 -0.0322,-0.19327 -0.10542,-0.3309 -0.0732,-0.13763 -0.18741,-0.21377 -0.1142,-0.0791 -0.27233,-0.0791 -0.0966,0 -0.1962,0.0322 -0.0996,0.0293 -0.20791,0.10249 -0.10542,0.0703 -0.22549,0.19034 -0.11713,0.11714 -0.25183,0.29284 v 1.42609 q 0.14056,0.0586 0.29576,0.0937 0.1552,0.0322 0.30455,0.0322 0.41289,0 0.64716,-0.27819 0.23426,-0.28112 0.23426,-0.84336 z"
       style="font-style:normal;font-variant:normal;font-weight:normal;font-stretch:normal;font-size:5.99722px;line-height:1.25;font-family:consolas;-inkscape-font-specification:consolas;letter-spacing:0px;word-spacing:0px;fill:#a1d6ff;fill-opacity:1;stroke-width:0.264583"
       id="path1204" />
    <path
       d="m -102.23851,6.96843 q 0,0.10835 -0.003,0.18156 -0.003,0.0732 -0.009,0.13763 h -2.06449 q 0,0.45096 0.25184,0.69402 0.25184,0.24012 0.72623,0.24012 0.12884,0 0.25769,-0.009 0.12885,-0.0117 0.24891,-0.0293 0.12007,-0.0176 0.22842,-0.0381 0.11127,-0.0234 0.20498,-0.0498 v 0.41875 q -0.20791,0.0586 -0.47147,0.0937 -0.26062,0.0381 -0.54174,0.0381 -0.37776,0 -0.65009,-0.10249 -0.27234,-0.1025 -0.44804,-0.29577 -0.17277,-0.19619 -0.25769,-0.47731 -0.082,-0.28405 -0.082,-0.64131 0,-0.3104 0.0879,-0.58566 0.0908,-0.2782 0.26062,-0.48611 0.17277,-0.21084 0.42168,-0.33383 0.24891,-0.12299 0.56517,-0.12299 0.30747,0 0.54467,0.0966 0.2372,0.0966 0.39826,0.27526 0.16399,0.1757 0.24598,0.43047 0.0849,0.25183 0.0849,0.56516 z m -0.53003,-0.0732 q 0.009,-0.1962 -0.0381,-0.35726 -0.0469,-0.16399 -0.14641,-0.28112 -0.0966,-0.11713 -0.24305,-0.18156 -0.14642,-0.0673 -0.33969,-0.0673 -0.16691,0 -0.30455,0.0644 -0.13763,0.0644 -0.23719,0.18156 -0.0996,0.11713 -0.16106,0.28112 -0.0615,0.16399 -0.0761,0.36019 z"
       style="font-style:normal;font-variant:normal;font-weight:normal;font-stretch:normal;font-size:5.99722px;line-height:1.25;font-family:consolas;-inkscape-font-specification:consolas;letter-spacing:0px;word-spacing:0px;fill:#a1d6ff;fill-opacity:1;stroke-width:0.264583"
       id="path1206" />
    <path
       d="m -101.29852,5.65361 h 0.46562 l 0.0146,0.54174 q 0.26062,-0.31333 0.51246,-0.45389 0.25474,-0.14056 0.512424,-0.14056 0.45682,0 0.69109,0.29576 0.23719,0.29577 0.21962,0.8785 h -0.51538 q 0.009,-0.38654 -0.11421,-0.55931 -0.12006,-0.1757 -0.35432,-0.1757 -0.1025,0 -0.207904,0.0381 -0.10248,0.0351 -0.21375,0.11713 -0.10835,0.0791 -0.23134,0.20499 -0.12299,0.12592 -0.26355,0.30454 v 1.88878 h -0.5154 z"
       style="font-style:normal;font-variant:normal;font-weight:normal;font-stretch:normal;font-size:5.99722px;line-height:1.25;font-family:consolas;-inkscape-font-specification:consolas;letter-spacing:0px;word-spacing:0px;fill:#a1d6ff;fill-opacity:1;stroke-width:0.264583"
       id="path1208" />
    <path
       d="m -95.787416,7.79129 q 0,0.15521 -0.0527,0.2782 -0.0527,0.12299 -0.14349,0.21962 -0.0908,0.0937 -0.21084,0.16106 -0.12006,0.0674 -0.25769,0.11128 -0.1347,0.0439 -0.27819,0.0644 -0.14349,0.0205 -0.28112,0.0205 -0.29869,0 -0.55053,-0.0264 -0.24891,-0.0264 -0.48903,-0.0849 V 8.06652 q 0.25769,0.0732 0.51246,0.11127 0.25476,0.0381 0.5066,0.0381 0.36604,0 0.54174,-0.0996 0.1757,-0.0996 0.1757,-0.28405 0,-0.0791 -0.0293,-0.14056 -0.0264,-0.0644 -0.0996,-0.12006 -0.0732,-0.0586 -0.2284,-0.12006 -0.15228,-0.0615 -0.41876,-0.14056 -0.19912,-0.0586 -0.36897,-0.13178 -0.16691,-0.0761 -0.2899,-0.17862 -0.12299,-0.1025 -0.19327,-0.24013 -0.0703,-0.13763 -0.0703,-0.32504 0,-0.12299 0.0556,-0.26941 0.0586,-0.14642 0.1962,-0.27233 0.13763,-0.12592 0.37189,-0.20792 0.23427,-0.0849 0.58567,-0.0849 0.17277,0 0.38361,0.0205 0.21084,0.0176 0.43925,0.0644 v 0.4539 q -0.24012,-0.0586 -0.45682,-0.0849 -0.21377,-0.0293 -0.3719,-0.0293 -0.19034,0 -0.32211,0.0293 -0.12885,0.0293 -0.21084,0.082 -0.0791,0.0498 -0.11421,0.12006 -0.0351,0.0673 -0.0351,0.14642 0,0.0791 0.0293,0.14348 0.0322,0.0644 0.1142,0.12592 0.0849,0.0586 0.23427,0.12006 0.14934,0.0586 0.38947,0.12885 0.26062,0.0761 0.43924,0.16106 0.17863,0.082 0.28991,0.18448 0.11128,0.10249 0.15813,0.23134 0.0498,0.12885 0.0498,0.29283 z"
       style="font-style:normal;font-variant:normal;font-weight:normal;font-stretch:normal;font-size:5.99722px;line-height:1.25;font-family:consolas;-inkscape-font-specification:consolas;letter-spacing:0px;word-spacing:0px;fill:#a1d6ff;fill-opacity:1;stroke-width:0.264583"
       id="path1210" />
    <path
       d="m -93.878146,4.45593 -0.082,1.37338 h -0.48025 l -0.0849,-1.37338 z m 1.13912,0 -0.082,1.37338 h -0.48025 l -0.0849,-1.37338 z"
       style="font-style:normal;font-variant:normal;font-weight:normal;font-stretch:normal;font-size:5.99722px;line-height:1.25;font-family:consolas;-inkscape-font-specification:consolas;letter-spacing:0px;word-spacing:0px;fill:#a1d6ff;fill-opacity:1;stroke-width:0.264583"
       id="path1212" />
    <path
       d="m -140.92282,13.15014 h 0.4656 l 0.0147,0.54174 q 0.26062,-0.31333 0.51245,-0.45389 0.25477,-0.14056 0.51246,-0.14056 0.45682,0 0.69109,0.29576 0.23719,0.29576 0.21962,0.8785 h -0.51539 q 0.009,-0.38654 -0.1142,-0.55931 -0.12006,-0.1757 -0.35433,-0.1757 -0.10249,0 -0.20791,0.0381 -0.10249,0.0351 -0.21377,0.11713 -0.10835,0.0791 -0.23133,0.20498 -0.123,0.12592 -0.26356,0.30455 v 1.88877 h -0.51538 z"
       style="font-style:normal;font-variant:normal;font-weight:normal;font-stretch:normal;font-size:5.99722px;line-height:1.25;font-family:consolas;-inkscape-font-specification:consolas;letter-spacing:0px;word-spacing:0px;fill:#79c0ff;fill-opacity:1;stroke-width:0.264583"
       id="path1216" />
    <path
       d="m -135.2565,14.46496 q 0,0.10835 -0.003,0.18155 -0.003,0.0732 -0.009,0.13764 h -2.06447 q 0,0.45096 0.25183,0.69401 0.25184,0.24012 0.72623,0.24012 0.12885,0 0.25769,-0.009 0.12885,-0.0117 0.24891,-0.0293 0.12006,-0.0176 0.22841,-0.0381 0.11128,-0.0234 0.20498,-0.0498 v 0.41875 q -0.20791,0.0586 -0.47146,0.0937 -0.26062,0.0381 -0.54174,0.0381 -0.37775,0 -0.65009,-0.10249 -0.27233,-0.10249 -0.44803,-0.29576 -0.17277,-0.1962 -0.2577,-0.47732 -0.082,-0.28405 -0.082,-0.6413 0,-0.31041 0.0879,-0.58567 0.0908,-0.27819 0.26062,-0.4861 0.17278,-0.21084 0.42168,-0.33383 0.24891,-0.12299 0.56517,-0.12299 0.30748,0 0.54467,0.0966 0.2372,0.0966 0.39825,0.27527 0.16399,0.1757 0.24598,0.43046 0.0849,0.25184 0.0849,0.56517 z m -0.53003,-0.0732 q 0.009,-0.1962 -0.0381,-0.35726 -0.0469,-0.16398 -0.14642,-0.28112 -0.0966,-0.11713 -0.24305,-0.18155 -0.14641,-0.0673 -0.33968,-0.0673 -0.16692,0 -0.30455,0.0644 -0.13763,0.0644 -0.23719,0.18156 -0.0996,0.11713 -0.16106,0.28112 -0.0615,0.16398 -0.0761,0.36018 z"
       style="font-style:normal;font-variant:normal;font-weight:normal;font-stretch:normal;font-size:5.99722px;line-height:1.25;font-family:consolas;-inkscape-font-specification:consolas;letter-spacing:0px;word-spacing:0px;fill:#79c0ff;fill-opacity:1;stroke-width:0.264583"
       id="path1218" />
    <path
       d="m -131.92406,14.56745 q 0,0.3924 -0.11128,0.68523 -0.10835,0.29283 -0.30162,0.4861 -0.19326,0.19327 -0.45681,0.28991 -0.26355,0.0966 -0.57103,0.0966 -0.14056,0 -0.28112,-0.0146 -0.13763,-0.0146 -0.28112,-0.0498 v 1.2299 h -0.50953 v -4.14066 h 0.45389 l 0.0322,0.49196 q 0.21963,-0.30162 0.46854,-0.42168 0.2489,-0.12299 0.53881,-0.12299 0.25183,0 0.44218,0.10542 0.19034,0.10542 0.31919,0.29869 0.12884,0.19034 0.19327,0.46267 0.0644,0.26941 0.0644,0.60324 z m -0.52124,0.0234 q 0,-0.23134 -0.0351,-0.42461 -0.0322,-0.19327 -0.10542,-0.3309 -0.0732,-0.13763 -0.18742,-0.21377 -0.1142,-0.0791 -0.27233,-0.0791 -0.0966,0 -0.1962,0.0322 -0.0996,0.0293 -0.20791,0.10249 -0.10542,0.0703 -0.22548,0.19034 -0.11713,0.11713 -0.25184,0.29283 v 1.4261 q 0.14056,0.0586 0.29576,0.0937 0.1552,0.0322 0.30455,0.0322 0.41289,0 0.64716,-0.27819 0.23427,-0.28112 0.23427,-0.84336 z"
       style="font-style:normal;font-variant:normal;font-weight:normal;font-stretch:normal;font-size:5.99722px;line-height:1.25;font-family:consolas;-inkscape-font-specification:consolas;letter-spacing:0px;word-spacing:0px;fill:#79c0ff;fill-opacity:1;stroke-width:0.264583"
       id="path1220" />
    <path
       d="m -128.57405,14.59673 q 0,0.34262 -0.0966,0.62959 -0.0966,0.28405 -0.27819,0.48904 -0.18155,0.20205 -0.44218,0.31626 -0.26062,0.11127 -0.59152,0.11127 -0.31626,0 -0.56809,-0.0966 -0.24891,-0.0996 -0.42461,-0.28991 -0.17277,-0.19034 -0.26648,-0.47146 -0.0908,-0.28112 -0.0908,-0.64716 0,-0.34261 0.0966,-0.62373 0.0966,-0.28405 0.27819,-0.48611 0.18155,-0.20498 0.44218,-0.31626 0.26062,-0.1142 0.59152,-0.1142 0.31626,0 0.56517,0.0996 0.25183,0.0966 0.4246,0.28698 0.1757,0.18741 0.26648,0.46853 0.0937,0.28112 0.0937,0.64423 z m -0.52124,0.0234 q 0,-0.27233 -0.0615,-0.47439 -0.0586,-0.20498 -0.16984,-0.33969 -0.11128,-0.13763 -0.27234,-0.20498 -0.15813,-0.0703 -0.35433,-0.0703 -0.2284,0 -0.39239,0.0908 -0.16106,0.0879 -0.26648,0.23719 -0.10249,0.14935 -0.15227,0.34848 -0.0469,0.19619 -0.0469,0.41289 0,0.27233 0.0586,0.47732 0.0615,0.20498 0.17277,0.34261 0.11128,0.13471 0.26941,0.20499 0.15813,0.0674 0.35725,0.0674 0.22841,0 0.38947,-0.0879 0.16399,-0.0908 0.26648,-0.24013 0.10542,-0.14934 0.15227,-0.34554 0.0498,-0.19913 0.0498,-0.41875 z"
       style="font-style:normal;font-variant:normal;font-weight:normal;font-stretch:normal;font-size:5.99722px;line-height:1.25;font-family:consolas;-inkscape-font-specification:consolas;letter-spacing:0px;word-spacing:0px;fill:#79c0ff;fill-opacity:1;stroke-width:0.264583"
       id="path1222" />
    <path
       d="m -125.39096,14.19848 h -2.51836 v -0.43046 h 2.51836 z m 0,1.01906 h -2.51836 v -0.43047 h 2.51836 z"
       style="font-style:normal;font-variant:normal;font-weight:normal;font-stretch:normal;font-size:5.99722px;line-height:1.25;font-family:consolas;-inkscape-font-specification:consolas;letter-spacing:0px;word-spacing:0px;fill:#79c0ff;fill-opacity:1;stroke-width:0.264583"
       id="path1224" />
    <path
       d="m -123.60655,11.95245 -0.082,1.37339 h -0.48024 l -0.0849,-1.37339 z m 1.13913,0 -0.082,1.37339 h -0.48024 l -0.0849,-1.37339 z"
       style="font-style:normal;font-variant:normal;font-weight:normal;font-stretch:normal;font-size:5.99722px;line-height:1.25;font-family:consolas;-inkscape-font-specification:consolas;letter-spacing:0px;word-spacing:0px;fill:#a1d6ff;fill-opacity:1;stroke-width:0.264583"
       id="path1228" />
    <path
       d="m -118.43804,16.09018 h -0.5681 l -0.26648,-0.83457 h -1.59301 l -0.26941,0.83457 h -0.54174 l 1.2709,-3.82733 h 0.71451 z m -0.98392,-1.30018 -0.64716,-2.0469 -0.64716,2.0469 z"
       style="font-style:normal;font-variant:normal;font-weight:normal;font-stretch:normal;font-size:5.99722px;line-height:1.25;font-family:consolas;-inkscape-font-specification:consolas;letter-spacing:0px;word-spacing:0px;fill:#a1d6ff;fill-opacity:1;stroke-width:0.264583"
       id="path1230" />
    <path
       d="m -117.93437,13.15014 h 0.45389 l 0.0205,0.47439 q 0.12885,-0.15228 0.24891,-0.25184 0.12006,-0.10249 0.23426,-0.16399 0.11714,-0.0615 0.2372,-0.0849 0.12006,-0.0263 0.24891,-0.0263 0.45389,0 0.68523,0.2694 0.23426,0.26648 0.23426,0.8053 v 1.91805 h -0.50953 v -1.87706 q 0,-0.34554 -0.12884,-0.50953 -0.12885,-0.16691 -0.38362,-0.16691 -0.0937,0 -0.18448,0.0293 -0.0879,0.0264 -0.18449,0.0966 -0.0966,0.0674 -0.21083,0.18448 -0.11128,0.11713 -0.25184,0.29283 v 1.95027 h -0.50953 z"
       style="font-style:normal;font-variant:normal;font-weight:normal;font-stretch:normal;font-size:5.99722px;line-height:1.25;font-family:consolas;-inkscape-font-specification:consolas;letter-spacing:0px;word-spacing:0px;fill:#a1d6ff;fill-opacity:1;stroke-width:0.264583"
       id="path1232" />
    <path
       d="m -113.62972,13.57182 h -0.86972 v -0.42168 h 1.3851 v 2.51543 h 0.87557 v 0.42461 h -2.3573 v -0.42461 h 0.96635 z m 0.17862,-1.65451 q 0.0849,0 0.15813,0.0322 0.0732,0.0293 0.12592,0.0849 0.0556,0.0556 0.0849,0.12885 0.0322,0.0703 0.0322,0.1552 0,0.082 -0.0322,0.1552 -0.0293,0.0732 -0.0849,0.12885 -0.0527,0.0556 -0.12592,0.0879 -0.0732,0.0293 -0.15813,0.0293 -0.0849,0 -0.15813,-0.0293 -0.0732,-0.0322 -0.12884,-0.0879 -0.0527,-0.0556 -0.0849,-0.12885 -0.0293,-0.0732 -0.0293,-0.1552 0,-0.0849 0.0293,-0.1552 0.0322,-0.0732 0.0849,-0.12885 0.0556,-0.0556 0.12884,-0.0849 0.0732,-0.0322 0.15813,-0.0322 z"
       style="font-style:normal;font-variant:normal;font-weight:normal;font-stretch:normal;font-size:5.99722px;line-height:1.25;font-family:consolas;-inkscape-font-specification:consolas;letter-spacing:0px;word-spacing:0px;fill:#a1d6ff;fill-opacity:1;stroke-width:0.264583"
       id="path1234" />
    <path
       d="m -109.23137,16.09018 v -2.11132 q 0,-0.13764 -0.0117,-0.22549 -0.009,-0.0879 -0.0322,-0.13763 -0.0205,-0.0527 -0.0556,-0.0732 -0.0322,-0.0205 -0.082,-0.0205 -0.0586,0 -0.10835,0.0351 -0.0498,0.0351 -0.10834,0.1142 -0.0556,0.0791 -0.12592,0.21084 -0.0673,0.12885 -0.16106,0.31919 v 1.88877 h -0.4656 v -2.05569 q 0,-0.16105 -0.0117,-0.26062 -0.009,-0.0996 -0.0322,-0.1552 -0.0205,-0.0556 -0.0556,-0.0761 -0.0351,-0.0205 -0.0849,-0.0205 -0.0527,0 -0.0996,0.0293 -0.0469,0.0293 -0.10542,0.10542 -0.0556,0.0761 -0.12592,0.20791 -0.0703,0.13178 -0.16692,0.33676 v 1.88877 h -0.46853 v -2.94004 h 0.38947 l 0.0234,0.55931 q 0.0761,-0.16692 0.14641,-0.28405 0.0732,-0.11713 0.14935,-0.18741 0.0761,-0.0732 0.16106,-0.10542 0.0879,-0.0351 0.19327,-0.0351 0.23719,0 0.36018,0.1552 0.12299,0.1552 0.12299,0.48025 0.0703,-0.15228 0.13763,-0.26941 0.0674,-0.12006 0.14349,-0.19913 0.0791,-0.082 0.17277,-0.12299 0.0937,-0.0439 0.2167,-0.0439 0.55345,0 0.55345,0.85214 v 2.14061 z"
       style="font-style:normal;font-variant:normal;font-weight:normal;font-stretch:normal;font-size:5.99722px;line-height:1.25;font-family:consolas;-inkscape-font-specification:consolas;letter-spacing:0px;word-spacing:0px;fill:#a1d6ff;fill-opacity:1;stroke-width:0.264583"
       id="path1236" />
    <path
       d="m -106.13613,16.09018 -0.0117,-0.39532 q -0.24012,0.23719 -0.48903,0.34261 -0.24598,0.10542 -0.51832,0.10542 -0.25183,0 -0.43046,-0.0644 -0.17863,-0.0644 -0.29576,-0.1757 -0.11421,-0.11421 -0.16985,-0.26648 -0.0527,-0.15227 -0.0527,-0.3309 0,-0.44218 0.32798,-0.69109 0.3309,-0.25183 0.97513,-0.25183 h 0.60909 v -0.2577 q 0,-0.26062 -0.16691,-0.41582 -0.16692,-0.15813 -0.50953,-0.15813 -0.24891,0 -0.49196,0.0556 -0.24012,0.0556 -0.49782,0.15813 v -0.45975 q 0.0966,-0.0351 0.21377,-0.0674 0.12006,-0.0351 0.25184,-0.0615 0.13177,-0.0264 0.27526,-0.041 0.14349,-0.0176 0.28991,-0.0176 0.26647,0 0.48024,0.0586 0.21377,0.0586 0.36019,0.17863 0.14934,0.12006 0.22841,0.30162 0.0791,0.18156 0.0791,0.42754 v 2.0264 z m -0.0556,-1.33825 h -0.64716 q -0.19034,0 -0.32797,0.0381 -0.13763,0.0381 -0.22548,0.10835 -0.0879,0.0703 -0.13178,0.16984 -0.041,0.0966 -0.041,0.21963 0,0.0849 0.0264,0.16399 0.0264,0.0761 0.0849,0.13763 0.0586,0.0586 0.15228,0.0937 0.0937,0.0351 0.22841,0.0351 0.1757,0 0.40118,-0.10542 0.22841,-0.10834 0.48024,-0.33968 z"
       style="font-style:normal;font-variant:normal;font-weight:normal;font-stretch:normal;font-size:5.99722px;line-height:1.25;font-family:consolas;-inkscape-font-specification:consolas;letter-spacing:0px;word-spacing:0px;fill:#a1d6ff;fill-opacity:1;stroke-width:0.264583"
       id="path1238" />
    <path
       d="m -102.35271,16.04919 q -0.17278,0.0439 -0.35726,0.0615 -0.1845,0.0205 -0.37484,0.0205 -0.55345,0 -0.82579,-0.24891 -0.27233,-0.25184 -0.27233,-0.77015 v -1.53445 h -0.82286 v -0.42753 h 0.82286 v -0.80822 l 0.50953,-0.13178 v 0.94 h 1.32069 v 0.42753 h -1.32069 v 1.49345 q 0,0.31626 0.16691,0.47439 0.16985,0.1552 0.49782,0.1552 0.14056,0 0.30748,-0.0205 0.16692,-0.0234 0.34848,-0.0703 z"
       style="font-style:normal;font-variant:normal;font-weight:normal;font-stretch:normal;font-size:5.99722px;line-height:1.25;font-family:consolas;-inkscape-font-specification:consolas;letter-spacing:0px;word-spacing:0px;fill:#a1d6ff;fill-opacity:1;stroke-width:0.264583"
       id="path1240" />
    <path
       d="m -98.935376,14.46496 q 0,0.10835 -0.003,0.18155 -0.003,0.0732 -0.009,0.13764 h -2.064444 q 0,0.45096 0.25183,0.69401 0.25184,0.24012 0.72621,0.24012 0.128844,0 0.257684,-0.009 0.12885,-0.0117 0.24891,-0.0293 0.12006,-0.0176 0.22841,-0.0381 0.11128,-0.0234 0.20498,-0.0498 v 0.41875 q -0.20791,0.0586 -0.47146,0.0937 -0.26062,0.0381 -0.541724,0.0381 -0.37774,0 -0.65008,-0.10249 -0.27233,-0.10249 -0.44804,-0.29576 -0.17277,-0.1962 -0.25769,-0.47732 -0.082,-0.28405 -0.082,-0.6413 0,-0.31041 0.0879,-0.58567 0.0908,-0.27819 0.26063,-0.4861 0.17278,-0.21084 0.42168,-0.33383 0.24891,-0.12299 0.56517,-0.12299 0.307454,0 0.544644,0.0966 0.2372,0.0966 0.39825,0.27527 0.16399,0.1757 0.24598,0.43046 0.0849,0.25184 0.0849,0.56517 z m -0.53002,-0.0732 q 0.009,-0.1962 -0.0381,-0.35726 -0.0469,-0.16398 -0.14642,-0.28112 -0.0966,-0.11713 -0.24305,-0.18155 -0.146414,-0.0673 -0.339664,-0.0673 -0.16691,0 -0.30454,0.0644 -0.13763,0.0644 -0.2372,0.18156 -0.0996,0.11713 -0.16105,0.28112 -0.0615,0.16398 -0.0761,0.36018 z"
       style="font-style:normal;font-variant:normal;font-weight:normal;font-stretch:normal;font-size:5.99722px;line-height:1.25;font-family:consolas;-inkscape-font-specification:consolas;letter-spacing:0px;word-spacing:0px;fill:#a1d6ff;fill-opacity:1;stroke-width:0.264583"
       id="path1242" />
    <path
       d="m -98.264786,14.68165 q 0,-0.37482 0.1025,-0.66473 0.10249,-0.29283 0.2899,-0.49196 0.19034,-0.20205 0.45389,-0.30454 0.26648,-0.10542 0.59152,-0.10542 0.14056,0 0.27527,0.0176 0.13763,0.0176 0.2694,0.0556 v -1.23576 h 0.51246 v 4.13773 h -0.45682 l -0.0176,-0.55638 q -0.21377,0.3104 -0.46267,0.45975 -0.24891,0.14934 -0.53882,0.14934 -0.25183,0 -0.4451,-0.10542 -0.19035,-0.10542 -0.31919,-0.29576 -0.12592,-0.19327 -0.19034,-0.46268 -0.0644,-0.2694 -0.0644,-0.59738 z m 0.52125,-0.0322 q 0,0.53296 0.1552,0.79651 0.15813,0.26062 0.4451,0.26062 0.19327,0 0.40704,-0.17277 0.2167,-0.17277 0.45389,-0.51246 v -1.3646 q -0.12592,-0.0586 -0.27819,-0.0879 -0.15227,-0.0322 -0.30162,-0.0322 -0.41582,0 -0.65009,0.2694 -0.23133,0.26941 -0.23133,0.84336 z"
       style="font-style:normal;font-variant:normal;font-weight:normal;font-stretch:normal;font-size:5.99722px;line-height:1.25;font-family:consolas;-inkscape-font-specification:consolas;letter-spacing:0px;word-spacing:0px;fill:#a1d6ff;fill-opacity:1;stroke-width:0.264583"
       id="path1244" />
    <path
       d="m -92.305626,14.9452 q 0,0.27527 -0.10835,0.48904 -0.10542,0.21084 -0.30455,0.35725 -0.1962,0.14642 -0.47732,0.22256 -0.27819,0.0761 -0.6208,0.0761 h -1.00149 v -3.82733 h 1.0952 q 1.27968,0 1.27968,0.93121 0,0.31041 -0.14935,0.53296 -0.14642,0.22255 -0.48025,0.3309 0.15521,0.0293 0.29284,0.0996 0.14056,0.0703 0.24598,0.18156 0.10542,0.11128 0.16691,0.26355 0.0615,0.15227 0.0615,0.34261 z m -0.67938,-1.68086 q 0,-0.11713 -0.0351,-0.21962 -0.0351,-0.10542 -0.12299,-0.17863 -0.0879,-0.0761 -0.23719,-0.12006 -0.14935,-0.0439 -0.37775,-0.0439 h -0.53882 v 1.19769 h 0.52125 q 0.17862,0 0.32211,-0.0381 0.14642,-0.0381 0.24891,-0.11713 0.10542,-0.0791 0.16106,-0.1962 0.0586,-0.12006 0.0586,-0.28405 z m 0.12592,1.69843 q 0,-0.14641 -0.0615,-0.26355 -0.0615,-0.11713 -0.17863,-0.19619 -0.11713,-0.082 -0.28698,-0.12592 -0.16691,-0.0439 -0.37775,-0.0439 h -0.53296 v 1.31775 h 0.55053 q 0.44803,0 0.66766,-0.16691 0.21962,-0.16692 0.21962,-0.52125 z"
       style="font-style:normal;font-variant:normal;font-weight:normal;font-stretch:normal;font-size:5.99722px;line-height:1.25;font-family:consolas;-inkscape-font-specification:consolas;letter-spacing:0px;word-spacing:0px;fill:#a1d6ff;fill-opacity:1;stroke-width:0.264583"
       id="path1246" />
    <path
       d="m -88.949766,14.59673 q 0,0.34262 -0.0966,0.62959 -0.0966,0.28405 -0.2782,0.48904 -0.18155,0.20205 -0.44217,0.31626 -0.26062,0.11127 -0.59153,0.11127 -0.31626,0 -0.56809,-0.0966 -0.24891,-0.0996 -0.42461,-0.28991 -0.17277,-0.19034 -0.26648,-0.47146 -0.0908,-0.28112 -0.0908,-0.64716 0,-0.34261 0.0966,-0.62373 0.0966,-0.28405 0.27819,-0.48611 0.18156,-0.20498 0.44218,-0.31626 0.26062,-0.1142 0.59152,-0.1142 0.31626,0 0.56517,0.0996 0.25183,0.0966 0.42461,0.28698 0.1757,0.18741 0.26647,0.46853 0.0937,0.28112 0.0937,0.64423 z m -0.52124,0.0234 q 0,-0.27233 -0.0615,-0.47439 -0.0586,-0.20498 -0.16984,-0.33969 -0.11128,-0.13763 -0.27233,-0.20498 -0.15813,-0.0703 -0.35433,-0.0703 -0.22841,0 -0.3924,0.0908 -0.16106,0.0879 -0.26648,0.23719 -0.10249,0.14935 -0.15227,0.34848 -0.0468,0.19619 -0.0468,0.41289 0,0.27233 0.0586,0.47732 0.0615,0.20498 0.17277,0.34261 0.11128,0.13471 0.26941,0.20499 0.15813,0.0674 0.35726,0.0674 0.22841,0 0.38947,-0.0879 0.16398,-0.0908 0.26647,-0.24013 0.10542,-0.14934 0.15228,-0.34554 0.0498,-0.19913 0.0498,-0.41875 z"
       style="font-style:normal;font-variant:normal;font-weight:normal;font-stretch:normal;font-size:5.99722px;line-height:1.25;font-family:consolas;-inkscape-font-specification:consolas;letter-spacing:0px;word-spacing:0px;fill:#a1d6ff;fill-opacity:1;stroke-width:0.264583"
       id="path1248" />
    <path
       d="m -85.836946,16.04919 q -0.17277,0.0439 -0.35726,0.0615 -0.18448,0.0205 -0.37483,0.0205 -0.55345,0 -0.82578,-0.24891 -0.27234,-0.25184 -0.27234,-0.77015 v -1.53445 h -0.82286 v -0.42753 h 0.82286 v -0.80822 l 0.50953,-0.13178 v 0.94 h 1.32068 v 0.42753 h -1.32068 v 1.49345 q 0,0.31626 0.16692,0.47439 0.16984,0.1552 0.49781,0.1552 0.14056,0 0.30748,-0.0205 0.16691,-0.0234 0.34847,-0.0703 z"
       style="font-style:normal;font-variant:normal;font-weight:normal;font-stretch:normal;font-size:5.99722px;line-height:1.25;font-family:consolas;-inkscape-font-specification:consolas;letter-spacing:0px;word-spacing:0px;fill:#a1d6ff;fill-opacity:1;stroke-width:0.264583"
       id="path1250" />
    <path
       d="m -82.533796,16.04919 q -0.17277,0.0439 -0.35726,0.0615 -0.18448,0.0205 -0.37482,0.0205 -0.55346,0 -0.82579,-0.24891 -0.27234,-0.25184 -0.27234,-0.77015 v -1.53445 h -0.82286 v -0.42753 h 0.82286 v -0.80822 l 0.50953,-0.13178 v 0.94 h 1.32068 v 0.42753 h -1.32068 v 1.49345 q 0,0.31626 0.16692,0.47439 0.16984,0.1552 0.49782,0.1552 0.14056,0 0.30747,-0.0205 0.16691,-0.0234 0.34847,-0.0703 z"
       style="font-style:normal;font-variant:normal;font-weight:normal;font-stretch:normal;font-size:5.99722px;line-height:1.25;font-family:consolas;-inkscape-font-specification:consolas;letter-spacing:0px;word-spacing:0px;fill:#a1d6ff;fill-opacity:1;stroke-width:0.264583"
       id="path1252" />
    <path
       d="m -79.040296,14.59673 q 0,0.34262 -0.0966,0.62959 -0.0966,0.28405 -0.27819,0.48904 -0.18156,0.20205 -0.44218,0.31626 -0.26062,0.11127 -0.59152,0.11127 -0.31626,0 -0.5681,-0.0966 -0.24891,-0.0996 -0.42461,-0.28991 -0.17277,-0.19034 -0.26647,-0.47146 -0.0908,-0.28112 -0.0908,-0.64716 0,-0.34261 0.0966,-0.62373 0.0966,-0.28405 0.27819,-0.48611 0.18156,-0.20498 0.44218,-0.31626 0.26062,-0.1142 0.59152,-0.1142 0.31626,0 0.56517,0.0996 0.25184,0.0966 0.42461,0.28698 0.1757,0.18741 0.26648,0.46853 0.0937,0.28112 0.0937,0.64423 z m -0.52124,0.0234 q 0,-0.27233 -0.0615,-0.47439 -0.0586,-0.20498 -0.16985,-0.33969 -0.11127,-0.13763 -0.27233,-0.20498 -0.15813,-0.0703 -0.35433,-0.0703 -0.22841,0 -0.3924,0.0908 -0.16105,0.0879 -0.26647,0.23719 -0.1025,0.14935 -0.15228,0.34848 -0.0469,0.19619 -0.0469,0.41289 0,0.27233 0.0586,0.47732 0.0615,0.20498 0.17277,0.34261 0.11127,0.13471 0.2694,0.20499 0.15813,0.0674 0.35726,0.0674 0.22841,0 0.38947,-0.0879 0.16399,-0.0908 0.26648,-0.24013 0.10542,-0.14934 0.15227,-0.34554 0.0498,-0.19913 0.0498,-0.41875 z"
       style="font-style:normal;font-variant:normal;font-weight:normal;font-stretch:normal;font-size:5.99722px;line-height:1.25;font-family:consolas;-inkscape-font-specification:consolas;letter-spacing:0px;word-spacing:0px;fill:#a1d6ff;fill-opacity:1;stroke-width:0.264583"
       id="path1254" />
    <path
       d="m -76.199816,16.09018 v -2.11132 q 0,-0.13764 -0.0117,-0.22549 -0.009,-0.0879 -0.0322,-0.13763 -0.0205,-0.0527 -0.0556,-0.0732 -0.0322,-0.0205 -0.082,-0.0205 -0.0586,0 -0.10835,0.0351 -0.0498,0.0351 -0.10835,0.1142 -0.0556,0.0791 -0.12592,0.21084 -0.0674,0.12885 -0.16106,0.31919 v 1.88877 h -0.4656 v -2.05569 q 0,-0.16105 -0.0117,-0.26062 -0.009,-0.0996 -0.0322,-0.1552 -0.0205,-0.0556 -0.0556,-0.0761 -0.0351,-0.0205 -0.0849,-0.0205 -0.0527,0 -0.0996,0.0293 -0.0468,0.0293 -0.10542,0.10542 -0.0556,0.0761 -0.12592,0.20791 -0.0703,0.13178 -0.16691,0.33676 v 1.88877 h -0.46854 v -2.94004 h 0.38947 l 0.0234,0.55931 q 0.0761,-0.16692 0.14642,-0.28405 0.0732,-0.11713 0.14934,-0.18741 0.0761,-0.0732 0.16106,-0.10542 0.0879,-0.0351 0.19327,-0.0351 0.23719,0 0.36018,0.1552 0.12299,0.1552 0.12299,0.48025 0.0703,-0.15228 0.13763,-0.26941 0.0674,-0.12006 0.14349,-0.19913 0.0791,-0.082 0.17277,-0.12299 0.0937,-0.0439 0.2167,-0.0439 0.55345,0 0.55345,0.85214 v 2.14061 z"
       style="font-style:normal;font-variant:normal;font-weight:normal;font-stretch:normal;font-size:5.99722px;line-height:1.25;font-family:consolas;-inkscape-font-specification:consolas;letter-spacing:0px;word-spacing:0px;fill:#a1d6ff;fill-opacity:1;stroke-width:0.264583"
       id="path1256" />
    <path
       d="m -72.486696,14.9452 q 0,0.27527 -0.10835,0.48904 -0.10542,0.21084 -0.30454,0.35725 -0.1962,0.14642 -0.47732,0.22256 -0.27819,0.0761 -0.62081,0.0761 h -1.00148 v -3.82733 h 1.09519 q 1.27968,0 1.27968,0.93121 0,0.31041 -0.14934,0.53296 -0.14642,0.22255 -0.48025,0.3309 0.1552,0.0293 0.29283,0.0996 0.14056,0.0703 0.24598,0.18156 0.10542,0.11128 0.16692,0.26355 0.0615,0.15227 0.0615,0.34261 z m -0.67937,-1.68086 q 0,-0.11713 -0.0351,-0.21962 -0.0351,-0.10542 -0.12299,-0.17863 -0.0879,-0.0761 -0.23719,-0.12006 -0.14935,-0.0439 -0.37776,-0.0439 h -0.53881 v 1.19769 h 0.52124 q 0.17863,0 0.32212,-0.0381 0.14641,-0.0381 0.2489,-0.11713 0.10542,-0.0791 0.16106,-0.1962 0.0586,-0.12006 0.0586,-0.28405 z m 0.12592,1.69843 q 0,-0.14641 -0.0615,-0.26355 -0.0615,-0.11713 -0.17863,-0.19619 -0.11713,-0.082 -0.28697,-0.12592 -0.16692,-0.0439 -0.37776,-0.0439 h -0.53295 v 1.31775 h 0.55052 q 0.44804,0 0.66766,-0.16691 0.21963,-0.16692 0.21963,-0.52125 z"
       style="font-style:normal;font-variant:normal;font-weight:normal;font-stretch:normal;font-size:5.99722px;line-height:1.25;font-family:consolas;-inkscape-font-specification:consolas;letter-spacing:0px;word-spacing:0px;fill:#a1d6ff;fill-opacity:1;stroke-width:0.264583"
       id="path1258" />
    <path
       d="m -69.801406,16.09018 -0.0117,-0.39532 q -0.24012,0.23719 -0.48903,0.34261 -0.24598,0.10542 -0.51831,0.10542 -0.25184,0 -0.43047,-0.0644 -0.17863,-0.0644 -0.29576,-0.1757 -0.1142,-0.11421 -0.16984,-0.26648 -0.0527,-0.15227 -0.0527,-0.3309 0,-0.44218 0.32797,-0.69109 0.3309,-0.25183 0.97514,-0.25183 h 0.60909 v -0.2577 q 0,-0.26062 -0.16692,-0.41582 -0.16691,-0.15813 -0.50953,-0.15813 -0.2489,0 -0.49196,0.0556 -0.24012,0.0556 -0.49781,0.15813 v -0.45975 q 0.0966,-0.0351 0.21377,-0.0674 0.12006,-0.0351 0.25183,-0.0615 0.13178,-0.0264 0.27527,-0.041 0.14348,-0.0176 0.2899,-0.0176 0.26648,0 0.48025,0.0586 0.21376,0.0586 0.36018,0.17863 0.14935,0.12006 0.22841,0.30162 0.0791,0.18156 0.0791,0.42754 v 2.0264 z m -0.0556,-1.33825 h -0.64716 q -0.19034,0 -0.32798,0.0381 -0.13763,0.0381 -0.22548,0.10835 -0.0879,0.0703 -0.13177,0.16984 -0.041,0.0966 -0.041,0.21963 0,0.0849 0.0264,0.16399 0.0264,0.0761 0.0849,0.13763 0.0586,0.0586 0.15227,0.0937 0.0937,0.0351 0.22841,0.0351 0.1757,0 0.40118,-0.10542 0.22841,-0.10834 0.48025,-0.33968 z"
       style="font-style:normal;font-variant:normal;font-weight:normal;font-stretch:normal;font-size:5.99722px;line-height:1.25;font-family:consolas;-inkscape-font-specification:consolas;letter-spacing:0px;word-spacing:0px;fill:#a1d6ff;fill-opacity:1;stroke-width:0.264583"
       id="path1260" />
    <path
       d="m -68.266966,13.15014 h 0.4656 l 0.0146,0.54174 q 0.26063,-0.31333 0.51246,-0.45389 0.25477,-0.14056 0.51246,-0.14056 0.45682,0 0.69109,0.29576 0.23719,0.29576 0.21962,0.8785 h -0.51538 q 0.009,-0.38654 -0.11421,-0.55931 -0.12006,-0.1757 -0.35433,-0.1757 -0.10249,0 -0.20791,0.0381 -0.10249,0.0351 -0.21377,0.11713 -0.10835,0.0791 -0.23134,0.20498 -0.12299,0.12592 -0.26355,0.30455 v 1.88877 h -0.51538 z"
       style="font-style:normal;font-variant:normal;font-weight:normal;font-stretch:normal;font-size:5.99722px;line-height:1.25;font-family:consolas;-inkscape-font-specification:consolas;letter-spacing:0px;word-spacing:0px;fill:#a1d6ff;fill-opacity:1;stroke-width:0.264583"
       id="path1262" />
    <path
       d="m -64.149736,11.95245 -0.082,1.37339 h -0.48025 l -0.0849,-1.37339 z m 1.13912,0 -0.082,1.37339 h -0.48024 l -0.0849,-1.37339 z"
       style="font-style:normal;font-variant:normal;font-weight:normal;font-stretch:normal;font-size:5.99722px;line-height:1.25;font-family:consolas;-inkscape-font-specification:consolas;letter-spacing:0px;word-spacing:0px;fill:#a1d6ff;fill-opacity:1;stroke-width:0.264583"
       id="path1264" />
    <path
       d="m -138.67386,23.54571 q -0.17277,0.0439 -0.35726,0.0615 -0.18448,0.0205 -0.37482,0.0205 -0.55346,0 -0.82579,-0.2489 -0.27234,-0.25184 -0.27234,-0.77016 v -1.53444 h -0.82286 v -0.42754 h 0.82286 v -0.80822 l 0.50953,-0.13177 v 0.93999 h 1.32068 v 0.42754 h -1.32068 v 1.49345 q 0,0.31626 0.16692,0.47439 0.16984,0.1552 0.49781,0.1552 0.14056,0 0.30748,-0.0205 0.16691,-0.0234 0.34847,-0.0703 z"
       style="font-style:normal;font-variant:normal;font-weight:normal;font-stretch:normal;font-size:5.99722px;line-height:1.25;font-family:consolas;-inkscape-font-specification:consolas;letter-spacing:0px;word-spacing:0px;fill:#79c0ff;fill-opacity:1;stroke-width:0.264583"
       id="path1268" />
    <path
       d="m -135.12472,20.64666 -1.00149,2.62964 q -0.15521,0.40119 -0.32212,0.69109 -0.16399,0.2899 -0.36018,0.47439 -0.1962,0.18741 -0.43047,0.27526 -0.23427,0.0879 -0.52417,0.0879 -0.0761,0 -0.13763,-0.003 -0.0615,-0.003 -0.1347,-0.009 v -0.46268 q 0.0644,0.009 0.14056,0.0146 0.0761,0.009 0.16105,0.009 0.14056,0 0.26062,-0.041 0.12299,-0.041 0.23134,-0.1347 0.10835,-0.0908 0.20791,-0.2372 0.0996,-0.14641 0.19327,-0.35432 l -1.17426,-2.94005 h 0.57981 l 0.7438,1.94441 0.14934,0.45682 0.16985,-0.46853 0.68815,-1.9327 z"
       style="font-style:normal;font-variant:normal;font-weight:normal;font-stretch:normal;font-size:5.99722px;line-height:1.25;font-family:consolas;-inkscape-font-specification:consolas;letter-spacing:0px;word-spacing:0px;fill:#79c0ff;fill-opacity:1;stroke-width:0.264583"
       id="path1270" />
    <path
       d="m -131.92406,22.06398 q 0,0.39239 -0.11128,0.68522 -0.10835,0.29284 -0.30162,0.48611 -0.19326,0.19327 -0.45681,0.2899 -0.26355,0.0966 -0.57103,0.0966 -0.14056,0 -0.28112,-0.0146 -0.13763,-0.0147 -0.28112,-0.0498 v 1.2299 h -0.50953 v -4.14066 h 0.45389 l 0.0322,0.49196 q 0.21963,-0.30162 0.46854,-0.42168 0.2489,-0.12299 0.53881,-0.12299 0.25183,0 0.44218,0.10542 0.19034,0.10542 0.31919,0.29869 0.12884,0.19034 0.19327,0.46268 0.0644,0.26941 0.0644,0.60324 z m -0.52124,0.0234 q 0,-0.23134 -0.0351,-0.42461 -0.0322,-0.19327 -0.10542,-0.3309 -0.0732,-0.13763 -0.18742,-0.21377 -0.1142,-0.0791 -0.27233,-0.0791 -0.0966,0 -0.1962,0.0322 -0.0996,0.0293 -0.20791,0.10249 -0.10542,0.0703 -0.22548,0.19034 -0.11713,0.11714 -0.25184,0.29284 v 1.42609 q 0.14056,0.0586 0.29576,0.0937 0.1552,0.0322 0.30455,0.0322 0.41289,0 0.64716,-0.27819 0.23427,-0.28112 0.23427,-0.84336 z"
       style="font-style:normal;font-variant:normal;font-weight:normal;font-stretch:normal;font-size:5.99722px;line-height:1.25;font-family:consolas;-inkscape-font-specification:consolas;letter-spacing:0px;word-spacing:0px;fill:#79c0ff;fill-opacity:1;stroke-width:0.264583"
       id="path1272" />
    <path
       d="m -128.65019,21.96148 q 0,0.10835 -0.003,0.18156 -0.003,0.0732 -0.009,0.13763 h -2.06447 q 0,0.45096 0.25183,0.69402 0.25184,0.24012 0.72623,0.24012 0.12884,0 0.25769,-0.009 0.12885,-0.0117 0.24891,-0.0293 0.12006,-0.0176 0.22841,-0.0381 0.11128,-0.0234 0.20498,-0.0498 v 0.41875 q -0.20791,0.0586 -0.47146,0.0937 -0.26062,0.0381 -0.54174,0.0381 -0.37775,0 -0.65009,-0.10249 -0.27233,-0.1025 -0.44803,-0.29577 -0.17278,-0.19619 -0.2577,-0.47731 -0.082,-0.28405 -0.082,-0.64131 0,-0.3104 0.0878,-0.58566 0.0908,-0.2782 0.26062,-0.48611 0.17277,-0.21084 0.42168,-0.33383 0.24891,-0.12299 0.56517,-0.12299 0.30747,0 0.54467,0.0966 0.23719,0.0966 0.39825,0.27526 0.16399,0.1757 0.24598,0.43047 0.0849,0.25183 0.0849,0.56516 z m -0.53003,-0.0732 q 0.009,-0.1962 -0.0381,-0.35726 -0.0469,-0.16399 -0.14642,-0.28112 -0.0966,-0.11713 -0.24305,-0.18156 -0.14642,-0.0674 -0.33969,-0.0674 -0.16691,0 -0.30454,0.0644 -0.13764,0.0644 -0.2372,0.18156 -0.0996,0.11713 -0.16106,0.28112 -0.0615,0.16399 -0.0761,0.36019 z"
       style="font-style:normal;font-variant:normal;font-weight:normal;font-stretch:normal;font-size:5.99722px;line-height:1.25;font-family:consolas;-inkscape-font-specification:consolas;letter-spacing:0px;word-spacing:0px;fill:#79c0ff;fill-opacity:1;stroke-width:0.264583"
       id="path1274" />
    <path
       d="m -125.39096,21.69501 h -2.51836 v -0.43047 h 2.51836 z m 0,1.01905 h -2.51836 V 22.2836 h 2.51836 z"
       style="font-style:normal;font-variant:normal;font-weight:normal;font-stretch:normal;font-size:5.99722px;line-height:1.25;font-family:consolas;-inkscape-font-specification:consolas;letter-spacing:0px;word-spacing:0px;fill:#79c0ff;fill-opacity:1;stroke-width:0.264583"
       id="path1276" />
    <path
       d="m -123.60655,19.44898 -0.082,1.37338 h -0.48024 l -0.0849,-1.37338 z m 1.13913,0 -0.082,1.37338 h -0.48024 l -0.0849,-1.37338 z"
       style="font-style:normal;font-variant:normal;font-weight:normal;font-stretch:normal;font-size:5.99722px;line-height:1.25;font-family:consolas;-inkscape-font-specification:consolas;letter-spacing:0px;word-spacing:0px;fill:#a1d6ff;fill-opacity:1;stroke-width:0.264583"
       id="path1280" />
    <path
       d="m -118.9095,22.78434 q 0,0.15521 -0.0527,0.2782 -0.0527,0.12299 -0.14349,0.21962 -0.0908,0.0937 -0.21084,0.16106 -0.12006,0.0674 -0.2577,0.11128 -0.1347,0.0439 -0.27819,0.0644 -0.14348,0.0205 -0.28112,0.0205 -0.29869,0 -0.55052,-0.0264 -0.24891,-0.0263 -0.48903,-0.0849 v -0.46853 q 0.25769,0.0732 0.51245,0.11127 0.25477,0.0381 0.50661,0.0381 0.36604,0 0.54174,-0.0996 0.1757,-0.0996 0.1757,-0.28405 0,-0.0791 -0.0293,-0.14056 -0.0264,-0.0644 -0.0996,-0.12006 -0.0732,-0.0586 -0.22841,-0.12006 -0.15227,-0.0615 -0.41875,-0.14056 -0.19913,-0.0586 -0.36897,-0.13178 -0.16692,-0.0761 -0.28991,-0.17862 -0.12299,-0.1025 -0.19327,-0.24013 -0.0703,-0.13763 -0.0703,-0.32504 0,-0.12299 0.0556,-0.26941 0.0586,-0.14642 0.1962,-0.27233 0.13763,-0.12592 0.3719,-0.20792 0.23427,-0.0849 0.58567,-0.0849 0.17277,0 0.38361,0.0205 0.21084,0.0176 0.43925,0.0644 v 0.4539 q -0.24013,-0.0586 -0.45682,-0.0849 -0.21377,-0.0293 -0.3719,-0.0293 -0.19034,0 -0.32212,0.0293 -0.12884,0.0293 -0.21084,0.082 -0.0791,0.0498 -0.1142,0.12006 -0.0351,0.0673 -0.0351,0.14642 0,0.0791 0.0293,0.14348 0.0322,0.0644 0.11421,0.12592 0.0849,0.0586 0.23426,0.12006 0.14935,0.0586 0.38947,0.12885 0.26062,0.0761 0.43925,0.16106 0.17863,0.082 0.2899,0.18448 0.11128,0.10249 0.15813,0.23134 0.0498,0.12885 0.0498,0.29283 z"
       style="font-style:normal;font-variant:normal;font-weight:normal;font-stretch:normal;font-size:5.99722px;line-height:1.25;font-family:consolas;-inkscape-font-specification:consolas;letter-spacing:0px;word-spacing:0px;fill:#a1d6ff;fill-opacity:1;stroke-width:0.264583"
       id="path1282" />
    <path
       d="m -115.56535,23.54571 q -0.17277,0.0439 -0.35726,0.0615 -0.18448,0.0205 -0.37482,0.0205 -0.55346,0 -0.82579,-0.2489 -0.27234,-0.25184 -0.27234,-0.77016 v -1.53444 h -0.82286 v -0.42754 h 0.82286 v -0.80822 l 0.50953,-0.13177 v 0.93999 h 1.32068 v 0.42754 h -1.32068 v 1.49345 q 0,0.31626 0.16692,0.47439 0.16984,0.1552 0.49781,0.1552 0.14056,0 0.30748,-0.0205 0.16691,-0.0234 0.34847,-0.0703 z"
       style="font-style:normal;font-variant:normal;font-weight:normal;font-stretch:normal;font-size:5.99722px;line-height:1.25;font-family:consolas;-inkscape-font-specification:consolas;letter-spacing:0px;word-spacing:0px;fill:#a1d6ff;fill-opacity:1;stroke-width:0.264583"
       id="path1284" />
    <path
       d="m -112.74244,23.58671 -0.0117,-0.39533 q -0.24013,0.2372 -0.48903,0.34262 -0.24598,0.10542 -0.51832,0.10542 -0.25184,0 -0.43046,-0.0644 -0.17863,-0.0644 -0.29576,-0.1757 -0.11421,-0.1142 -0.16985,-0.26647 -0.0527,-0.15228 -0.0527,-0.33091 0,-0.44217 0.32798,-0.69108 0.3309,-0.25184 0.97513,-0.25184 h 0.60909 v -0.25769 q 0,-0.26062 -0.16691,-0.41582 -0.16692,-0.15813 -0.50953,-0.15813 -0.24891,0 -0.49196,0.0556 -0.24013,0.0556 -0.49782,0.15813 v -0.45974 q 0.0966,-0.0351 0.21377,-0.0674 0.12006,-0.0351 0.25184,-0.0615 0.13177,-0.0264 0.27526,-0.041 0.14349,-0.0176 0.2899,-0.0176 0.26648,0 0.48025,0.0586 0.21377,0.0586 0.36018,0.17863 0.14935,0.12006 0.22841,0.30162 0.0791,0.18155 0.0791,0.42753 v 2.02641 z m -0.0556,-1.33825 h -0.64716 q -0.19034,0 -0.32797,0.0381 -0.13763,0.0381 -0.22548,0.10835 -0.0879,0.0703 -0.13178,0.16984 -0.041,0.0966 -0.041,0.21962 0,0.0849 0.0264,0.16399 0.0263,0.0761 0.0849,0.13763 0.0586,0.0586 0.15227,0.0937 0.0937,0.0351 0.22841,0.0351 0.1757,0 0.40119,-0.10542 0.22841,-0.10835 0.48024,-0.33969 z"
       style="font-style:normal;font-variant:normal;font-weight:normal;font-stretch:normal;font-size:5.99722px;line-height:1.25;font-family:consolas;-inkscape-font-specification:consolas;letter-spacing:0px;word-spacing:0px;fill:#a1d6ff;fill-opacity:1;stroke-width:0.264583"
       id="path1286" />
    <path
       d="m -111.20799,20.64666 h 0.4656 l 0.0146,0.54174 q 0.26062,-0.31333 0.51246,-0.45389 0.25477,-0.14056 0.51246,-0.14056 0.45682,0 0.69108,0.29576 0.2372,0.29577 0.21963,0.8785 h -0.51539 q 0.009,-0.38654 -0.1142,-0.55931 -0.12006,-0.1757 -0.35433,-0.1757 -0.10249,0 -0.20791,0.0381 -0.10249,0.0351 -0.21377,0.11713 -0.10835,0.0791 -0.23134,0.20499 -0.12299,0.12592 -0.26355,0.30454 v 1.88878 h -0.51538 z"
       style="font-style:normal;font-variant:normal;font-weight:normal;font-stretch:normal;font-size:5.99722px;line-height:1.25;font-family:consolas;-inkscape-font-specification:consolas;letter-spacing:0px;word-spacing:0px;fill:#a1d6ff;fill-opacity:1;stroke-width:0.264583"
       id="path1288" />
    <path
       d="m -105.69688,22.78434 q 0,0.15521 -0.0527,0.2782 -0.0527,0.12299 -0.14349,0.21962 -0.0908,0.0937 -0.21084,0.16106 -0.12006,0.0674 -0.25769,0.11128 -0.1347,0.0439 -0.27819,0.0644 -0.14349,0.0205 -0.28112,0.0205 -0.29869,0 -0.55053,-0.0264 -0.2489,-0.0263 -0.48903,-0.0849 v -0.46853 q 0.2577,0.0732 0.51246,0.11127 0.25476,0.0381 0.5066,0.0381 0.36604,0 0.54174,-0.0996 0.1757,-0.0996 0.1757,-0.28405 0,-0.0791 -0.0293,-0.14056 -0.0264,-0.0644 -0.0996,-0.12006 -0.0732,-0.0586 -0.22841,-0.12006 -0.15228,-0.0615 -0.41876,-0.14056 -0.19912,-0.0586 -0.36897,-0.13178 -0.16691,-0.0761 -0.2899,-0.17862 -0.12299,-0.1025 -0.19327,-0.24013 -0.0703,-0.13763 -0.0703,-0.32504 0,-0.12299 0.0556,-0.26941 0.0586,-0.14642 0.1962,-0.27233 0.13763,-0.12592 0.37189,-0.20792 0.23427,-0.0849 0.58567,-0.0849 0.17277,0 0.38361,0.0205 0.21084,0.0176 0.43925,0.0644 v 0.4539 q -0.24012,-0.0586 -0.45682,-0.0849 -0.21377,-0.0293 -0.3719,-0.0293 -0.19034,0 -0.32211,0.0293 -0.12885,0.0293 -0.21084,0.082 -0.0791,0.0498 -0.11421,0.12006 -0.0351,0.0673 -0.0351,0.14642 0,0.0791 0.0293,0.14348 0.0322,0.0644 0.1142,0.12592 0.0849,0.0586 0.23427,0.12006 0.14934,0.0586 0.38947,0.12885 0.26062,0.0761 0.43925,0.16106 0.17862,0.082 0.2899,0.18448 0.11128,0.10249 0.15813,0.23134 0.0498,0.12885 0.0498,0.29283 z"
       style="font-style:normal;font-variant:normal;font-weight:normal;font-stretch:normal;font-size:5.99722px;line-height:1.25;font-family:consolas;-inkscape-font-specification:consolas;letter-spacing:0px;word-spacing:0px;fill:#a1d6ff;fill-opacity:1;stroke-width:0.264583"
       id="path1290" />
    <path
       d="m -103.78761,19.44898 -0.082,1.37338 h -0.48024 l -0.0849,-1.37338 z m 1.13913,0 -0.082,1.37338 h -0.48025 l -0.0849,-1.37338 z"
       style="font-style:normal;font-variant:normal;font-weight:normal;font-stretch:normal;font-size:5.99722px;line-height:1.25;font-family:consolas;-inkscape-font-specification:consolas;letter-spacing:0px;word-spacing:0px;fill:#a1d6ff;fill-opacity:1;stroke-width:0.264583"
       id="path1292" />
    <path
       d="m -97.211619,19.44898 -2.00884,4.76732 h -0.4861 l 2.00884,-4.76732 z"
       style="font-style:normal;font-variant:normal;font-weight:normal;font-stretch:normal;font-size:5.99722px;line-height:1.25;font-family:consolas;-inkscape-font-specification:consolas;letter-spacing:0px;word-spacing:0px;fill:#79c0ff;fill-opacity:1;stroke-width:0.264583"
       id="path1296" />
    <path
       d="m -96.128139,20.67302 0.31626,-0.32505 1.96784,1.6428 -1.96784,1.64279 -0.31626,-0.32212 1.59594,-1.31482 z"
       style="font-style:normal;font-variant:normal;font-weight:normal;font-stretch:normal;font-size:5.99722px;line-height:1.25;font-family:consolas;-inkscape-font-specification:consolas;letter-spacing:0px;word-spacing:0px;fill:#79c0ff;fill-opacity:1;stroke-width:0.264583"
       id="path1298" />
    <text
       xml:space="preserve"
       style="font-weight:bold;font-size:6.35px;line-height:1.5;font-family:Rockwell;-inkscape-font-specification:'Rockwell Bold';letter-spacing:0px;word-spacing:0px;fill:#000000;fill-opacity:1;stroke-width:0.264583"
       x="-173.52773"
       y="-15.658877"
       id="text869-4-04"><tspan
         sodipodi:role="line"
         x="-173.52773"
         y="-15.658877"
         style="font-style:normal;font-variant:normal;font-weight:normal;font-stretch:normal;font-size:6.35px;font-family:Arial;-inkscape-font-specification:Arial;fill:#000000;fill-opacity:1;stroke-width:0.264583"
         id="tspan873-9-1">894</tspan></text>
  </g>
</svg>
