<?xml version="1.0" encoding="UTF-8" standalone="no"?>
<svg
   xmlns:dc="http://purl.org/dc/elements/1.1/"
   xmlns:cc="http://creativecommons.org/ns#"
   xmlns:rdf="http://www.w3.org/1999/02/22-rdf-syntax-ns#"
   xmlns:svg="http://www.w3.org/2000/svg"
   xmlns="http://www.w3.org/2000/svg"
   xmlns:sodipodi="http://sodipodi.sourceforge.net/DTD/sodipodi-0.dtd"
   xmlns:inkscape="http://www.inkscape.org/namespaces/inkscape"
   sodipodi:docname="demosvg.svg"
   inkscape:version="1.0 (4035a4fb49, 2020-05-01)"
   id="svg8"
   version="1.1"
   viewBox="0 0 220.77396 79.415497"
   height="79.415497mm"
   width="220.77396mm">
  <defs
     id="defs2" />
  <sodipodi:namedview
     inkscape:window-maximized="1"
     inkscape:window-y="-6"
     inkscape:window-x="-6"
     inkscape:window-height="938"
     inkscape:window-width="1500"
     showgrid="false"
     inkscape:document-rotation="0"
     inkscape:current-layer="layer1"
     inkscape:document-units="mm"
     inkscape:cy="33.421988"
     inkscape:cx="100.62672"
     inkscape:zoom="1.4"
     inkscape:pageshadow="2"
     inkscape:pageopacity="0.0"
     borderopacity="1.0"
     bordercolor="#666666"
     pagecolor="#ffffff"
     id="base" />
  <metadata
     id="metadata5">
    <rdf:RDF>
      <cc:Work
         rdf:about="">
        <dc:format>image/svg+xml</dc:format>
        <dc:type
           rdf:resource="http://purl.org/dc/dcmitype/StillImage" />
        <dc:title></dc:title>
      </cc:Work>
    </rdf:RDF>
  </metadata>
  <g
     transform="translate(216.22032,-37.399395)"
     id="layer1"
     inkscape:groupmode="layer"
     inkscape:label="Laag 1">
    <rect
       style="fill:#ffffff;fill-opacity:1;stroke:#949494;stroke-width:0.529167;stroke-linecap:square;stroke-linejoin:round;stroke-miterlimit:4;stroke-dasharray:none;stroke-opacity:1;paint-order:stroke markers fill"
       id="rect847-3"
       width="220.2448"
       height="78.88633"
       x="-215.95573"
       y="37.663979"
       ry="2.8760636" />
    <text
       xml:space="preserve"
       style="font-style:normal;font-variant:normal;font-weight:bold;font-stretch:normal;font-size:7.7611px;line-height:1.25;font-family:Arial;-inkscape-font-specification:'Arial Bold';letter-spacing:0px;word-spacing:0px;fill:#0b69ff;fill-opacity:1;stroke-width:0.195703"
       x="-206.56522"
       y="54.439034"
       id="text851-5"><tspan
         sodipodi:role="line"
         id="tspan849-0"
         x="-206.56522"
         y="54.439034"
         style="font-style:normal;font-variant:normal;font-weight:bold;font-stretch:normal;font-size:7.7611px;font-family:Arial;-inkscape-font-specification:'Arial Bold';fill:#0b69ff;fill-opacity:1;stroke-width:0.195703">AnimatedBottomBar</tspan></text>
    <text
       xml:space="preserve"
       style="font-weight:bold;font-size:6.35px;line-height:1.5;font-family:Rockwell;-inkscape-font-specification:'Rockwell Bold';letter-spacing:0px;word-spacing:0px;fill:#000000;fill-opacity:1;stroke-width:0.264583"
       x="-206.99875"
       y="68.699913"
       id="text869-0"><tspan
         sodipodi:role="line"
         id="tspan867-0"
         x="-206.99875"
         y="68.699913"
         style="font-style:normal;font-variant:normal;font-weight:normal;font-stretch:normal;font-size:6.35px;font-family:Arial;-inkscape-font-specification:Arial;fill:#000000;fill-opacity:1;stroke-width:0.264583">A customizable and easy to use BottomBar navigation view with sleek </tspan><tspan
         sodipodi:role="line"
         x="-206.99875"
         y="78.333122"
         style="font-style:normal;font-variant:normal;font-weight:normal;font-stretch:normal;font-size:6.35px;font-family:Arial;-inkscape-font-specification:Arial;fill:#000000;fill-opacity:1;stroke-width:0.264583"
         id="tspan875-1">animations, with support for ViewPager, ViewPager2, NavController, and </tspan><tspan
         sodipodi:role="line"
         x="-206.99875"
         y="87.966339"
         style="font-style:normal;font-variant:normal;font-weight:normal;font-stretch:normal;font-size:6.35px;font-family:Arial;-inkscape-font-specification:Arial;fill:#000000;fill-opacity:1;stroke-width:0.264583"
         id="tspan877-9">badges.</tspan><tspan
         sodipodi:role="line"
         x="-206.99875"
         y="97.599548"
         style="font-style:normal;font-variant:normal;font-weight:normal;font-stretch:normal;font-size:6.35px;font-family:Arial;-inkscape-font-specification:Arial;fill:#000000;fill-opacity:1;stroke-width:0.264583"
         id="tspan871-7" /><tspan
         sodipodi:role="line"
         x="-206.99875"
         y="107.12455"
         style="font-style:normal;font-variant:normal;font-weight:normal;font-stretch:normal;font-size:6.35px;font-family:Arial;-inkscape-font-specification:Arial;fill:#000000;fill-opacity:1;stroke-width:0.264583"
         id="tspan873-6" /></text>
    <text
       id="text869-4-04"
       y="105.6194"
       x="-170.04855"
       style="font-weight:bold;font-size:6.35px;line-height:1.5;font-family:Rockwell;-inkscape-font-specification:'Rockwell Bold';letter-spacing:0px;word-spacing:0px;fill:#000000;fill-opacity:1;stroke-width:0.264583"
       xml:space="preserve"><tspan
         id="tspan873-9-1"
         style="font-style:normal;font-variant:normal;font-weight:normal;font-stretch:normal;font-size:6.35px;font-family:Arial;-inkscape-font-specification:Arial;fill:#000000;fill-opacity:1;stroke-width:0.264583"
         y="105.6194"
         x="-170.04855"
         sodipodi:role="line">894</tspan></text>
    <text
       xml:space="preserve"
       style="font-weight:bold;font-size:6.35px;line-height:1.5;font-family:Rockwell;-inkscape-font-specification:'Rockwell Bold';letter-spacing:0px;word-spacing:0px;fill:#000000;fill-opacity:1;stroke-width:0.264583"
       x="-139.55219"
       y="105.73509"
       id="text869-4-0-7"><tspan
         id="tspan925-7"
         sodipodi:role="line"
         x="-139.55219"
         y="105.73509"
         style="font-style:normal;font-variant:normal;font-weight:normal;font-stretch:normal;font-size:6.35px;font-family:Arial;-inkscape-font-specification:Arial;fill:#000000;fill-opacity:1;stroke-width:0.264583">62</tspan></text>
    <path
       style="fill:#000000;fill-opacity:1;stroke-width:0.499975"
       fill-rule="evenodd"
       d="m -146.92577,100.75973 a 0.374985,0.374985 0 1 1 -0.74997,0 0.374985,0.374985 0 0 1 0.74997,0 z m 0,1.06095 a 1.1249436,1.1249436 0 1 0 -0.74997,0 v 0.43896 a 1.1249436,1.1249436 0 0 0 1.12495,1.12496 h 0.74996 v 1.06394 a 1.1254436,1.1254436 0 1 0 0.74996,0 v -1.06394 h 0.74997 a 1.1249436,1.1249436 0 0 0 1.12494,-1.12496 v -0.43896 a 1.1249436,1.1249436 0 1 0 -0.74997,0 v 0.43896 a 0.37498123,0.37498123 0 0 1 -0.37497,0.375 h -2.24989 a 0.37498123,0.37498123 0 0 1 -0.37498,-0.375 z m 1.8749,3.68883 a 0.37498123,0.37498123 0 1 1 -0.74996,0 0.37498123,0.37498123 0 0 1 0.74996,0 z m 1.49993,-4.37481 a 0.37498123,0.37498123 0 1 0 0,-0.74994 0.37498123,0.37498123 0 0 0 0,0.74994 z"
       id="path929-0" />
    <path
       style="fill:#000000;fill-opacity:1;stroke-width:0.494244"
       fill-rule="evenodd"
       d="m -176.10374,99.192965 a 0.37068353,0.37068353 0 0 1 0.33263,0.206592 l 0.93016,1.885543 2.08078,0.30247 a 0.37068353,0.37068353 0 0 1 0.2056,0.63214 l -1.50547,1.46791 0.35536,2.07187 a 0.37068353,0.37068353 0 0 1 -0.53774,0.39094 l -1.86132,-0.97859 -1.86133,0.97859 a 0.37068353,0.37068353 0 0 1 -0.53774,-0.39044 l 0.35586,-2.07287 -1.50646,-1.46741 a 0.37068353,0.37068353 0 0 1 0.20561,-0.63262 l 2.08077,-0.30199 0.93066,-1.885543 a 0.37068353,0.37068353 0 0 1 0.33263,-0.206592 z m 0,1.208425 -0.68453,1.38636 a 0.37068353,0.37068353 0 0 1 -0.27875,0.20264 l -1.53068,0.22241 1.10711,1.07943 a 0.37068353,0.37068353 0 0 1 0.10676,0.32817 l -0.26097,1.52427 1.36857,-0.71964 a 0.37068353,0.37068353 0 0 1 0.34498,0 l 1.36906,0.71964 -0.26195,-1.52427 a 0.37068353,0.37068353 0 0 1 0.10676,-0.32817 l 1.1071,-1.07894 -1.53018,-0.22242 a 0.37068353,0.37068353 0 0 1 -0.27875,-0.20263 l -0.68453,-1.38733 z"
       id="path940-0" />
    <text
       id="text953-7"
       y="105.89724"
       x="-206.90703"
       style="font-style:normal;font-variant:normal;font-weight:normal;font-stretch:normal;font-size:6.35px;line-height:1.25;font-family:Arial;-inkscape-font-specification:Arial;letter-spacing:0px;word-spacing:0px;fill:#000000;fill-opacity:1;stroke-width:0.264583"
       xml:space="preserve"><tspan
         style="font-style:normal;font-variant:normal;font-weight:normal;font-stretch:normal;font-size:6.35px;font-family:Arial;-inkscape-font-specification:Arial;fill:#000000;fill-opacity:1;stroke-width:0.264583"
         y="105.89724"
         x="-206.90703"
         id="tspan951-1"
         sodipodi:role="line">Kotlin</tspan></text>
  </g>
</svg>
